<mxfile host="app.diagrams.net" agent="Mozilla/5.0 (X11; Linux x86_64; rv:122.0) Gecko/20100101 Firefox/122.0" version="26.1.1">
  <diagram name="Page-1" id="aw-iucp-K5xLWnZdmfZD">
    <mxGraphModel dx="849" dy="907" grid="1" gridSize="10" guides="1" tooltips="1" connect="1" arrows="1" fold="1" page="1" pageScale="1" pageWidth="850" pageHeight="1100" math="0" shadow="0">
      <root>
        <mxCell id="0" />
        <mxCell id="1" parent="0" />
        <mxCell id="pYFTRabutMhb-Dyx74qj-1" value="" style="rounded=0;whiteSpace=wrap;html=1;" vertex="1" parent="1">
          <mxGeometry x="1040" y="200" width="680" height="320" as="geometry" />
        </mxCell>
        <mxCell id="pYFTRabutMhb-Dyx74qj-12" value="" style="group" vertex="1" connectable="0" parent="1">
          <mxGeometry x="1040" y="200" width="240" height="20" as="geometry" />
        </mxCell>
        <mxCell id="pYFTRabutMhb-Dyx74qj-4" value="" style="rounded=0;whiteSpace=wrap;html=1;align=center;" vertex="1" parent="pYFTRabutMhb-Dyx74qj-12">
          <mxGeometry width="240" height="20" as="geometry" />
        </mxCell>
        <mxCell id="pYFTRabutMhb-Dyx74qj-44" value="" style="triangle;whiteSpace=wrap;html=1;rotation=0;" vertex="1" parent="pYFTRabutMhb-Dyx74qj-12">
          <mxGeometry x="10" y="4.680000000000007" width="10.62" height="10.63" as="geometry" />
        </mxCell>
        <mxCell id="pYFTRabutMhb-Dyx74qj-24" value="" style="rounded=0;whiteSpace=wrap;html=1;" vertex="1" parent="1">
          <mxGeometry x="1040" y="280" width="240" height="240" as="geometry" />
        </mxCell>
        <mxCell id="pYFTRabutMhb-Dyx74qj-47" value="&lt;div&gt;&lt;font&gt;Менеджер устройств&lt;/font&gt;&lt;/div&gt;" style="text;html=1;align=left;verticalAlign=middle;whiteSpace=wrap;rounded=0;fontStyle=1" vertex="1" parent="1">
          <mxGeometry x="1070" y="200" width="210" height="20" as="geometry" />
        </mxCell>
        <mxCell id="pYFTRabutMhb-Dyx74qj-48" value="" style="group" vertex="1" connectable="0" parent="1">
          <mxGeometry x="1040" y="220" width="240" height="20" as="geometry" />
        </mxCell>
        <mxCell id="pYFTRabutMhb-Dyx74qj-49" value="" style="rounded=0;whiteSpace=wrap;html=1;align=center;" vertex="1" parent="pYFTRabutMhb-Dyx74qj-48">
          <mxGeometry width="240" height="20" as="geometry" />
        </mxCell>
        <mxCell id="pYFTRabutMhb-Dyx74qj-50" value="" style="triangle;whiteSpace=wrap;html=1;rotation=0;" vertex="1" parent="pYFTRabutMhb-Dyx74qj-48">
          <mxGeometry x="10" y="4.680000000000007" width="10.62" height="10.63" as="geometry" />
        </mxCell>
        <mxCell id="pYFTRabutMhb-Dyx74qj-51" value="&lt;font&gt;Менеджер локаторов&lt;/font&gt;" style="text;html=1;align=left;verticalAlign=middle;whiteSpace=wrap;rounded=0;fontStyle=1" vertex="1" parent="1">
          <mxGeometry x="1070" y="220" width="210" height="20" as="geometry" />
        </mxCell>
        <mxCell id="pYFTRabutMhb-Dyx74qj-52" value="" style="group" vertex="1" connectable="0" parent="1">
          <mxGeometry x="1040" y="240" width="240" height="20" as="geometry" />
        </mxCell>
        <mxCell id="pYFTRabutMhb-Dyx74qj-53" value="" style="rounded=0;whiteSpace=wrap;html=1;align=center;" vertex="1" parent="pYFTRabutMhb-Dyx74qj-52">
          <mxGeometry width="240" height="20" as="geometry" />
        </mxCell>
        <mxCell id="pYFTRabutMhb-Dyx74qj-54" value="" style="triangle;whiteSpace=wrap;html=1;rotation=0;" vertex="1" parent="pYFTRabutMhb-Dyx74qj-52">
          <mxGeometry x="10" y="4.680000000000007" width="10.62" height="10.63" as="geometry" />
        </mxCell>
        <mxCell id="pYFTRabutMhb-Dyx74qj-55" value="&lt;font&gt;Сигналы во временной области&lt;/font&gt;" style="text;html=1;align=left;verticalAlign=middle;whiteSpace=wrap;rounded=0;fontStyle=1" vertex="1" parent="1">
          <mxGeometry x="1070" y="240" width="210" height="20" as="geometry" />
        </mxCell>
        <mxCell id="pYFTRabutMhb-Dyx74qj-56" value="" style="group" vertex="1" connectable="0" parent="1">
          <mxGeometry x="1040" y="260" width="240" height="20" as="geometry" />
        </mxCell>
        <mxCell id="pYFTRabutMhb-Dyx74qj-57" value="" style="rounded=0;whiteSpace=wrap;html=1;align=center;" vertex="1" parent="pYFTRabutMhb-Dyx74qj-56">
          <mxGeometry width="240" height="20" as="geometry" />
        </mxCell>
        <mxCell id="pYFTRabutMhb-Dyx74qj-58" value="" style="triangle;whiteSpace=wrap;html=1;rotation=0;" vertex="1" parent="pYFTRabutMhb-Dyx74qj-56">
          <mxGeometry x="10" y="4.680000000000007" width="10.62" height="10.63" as="geometry" />
        </mxCell>
        <mxCell id="pYFTRabutMhb-Dyx74qj-59" value="&lt;div&gt;&lt;font&gt;Сигналы в частотной области&lt;font&gt;&lt;br&gt;&lt;/font&gt;&lt;/font&gt;&lt;/div&gt;" style="text;html=1;align=left;verticalAlign=middle;whiteSpace=wrap;rounded=0;fontStyle=1" vertex="1" parent="1">
          <mxGeometry x="1070" y="260" width="210" height="20" as="geometry" />
        </mxCell>
        <mxCell id="pYFTRabutMhb-Dyx74qj-60" value="" style="rounded=0;whiteSpace=wrap;html=1;" vertex="1" parent="1">
          <mxGeometry x="1040" y="560" width="680" height="320" as="geometry" />
        </mxCell>
        <mxCell id="pYFTRabutMhb-Dyx74qj-61" value="" style="group" vertex="1" connectable="0" parent="1">
          <mxGeometry x="1040" y="560" width="240" height="20" as="geometry" />
        </mxCell>
        <mxCell id="pYFTRabutMhb-Dyx74qj-62" value="" style="rounded=0;whiteSpace=wrap;html=1;align=center;" vertex="1" parent="pYFTRabutMhb-Dyx74qj-61">
          <mxGeometry width="240" height="20" as="geometry" />
        </mxCell>
        <mxCell id="pYFTRabutMhb-Dyx74qj-63" value="" style="triangle;whiteSpace=wrap;html=1;rotation=90;" vertex="1" parent="pYFTRabutMhb-Dyx74qj-61">
          <mxGeometry x="10" y="4.680000000000007" width="10.62" height="10.63" as="geometry" />
        </mxCell>
        <mxCell id="pYFTRabutMhb-Dyx74qj-64" value="" style="rounded=0;whiteSpace=wrap;html=1;" vertex="1" parent="1">
          <mxGeometry x="1040" y="700" width="240" height="180" as="geometry" />
        </mxCell>
        <mxCell id="pYFTRabutMhb-Dyx74qj-65" value="&lt;div&gt;&lt;font&gt;Менеджер устройств&lt;/font&gt;&lt;/div&gt;" style="text;html=1;align=left;verticalAlign=middle;whiteSpace=wrap;rounded=0;fontStyle=1" vertex="1" parent="1">
          <mxGeometry x="1070" y="560" width="210" height="20" as="geometry" />
        </mxCell>
        <mxCell id="pYFTRabutMhb-Dyx74qj-78" value="" style="rounded=0;whiteSpace=wrap;html=1;" vertex="1" parent="1">
          <mxGeometry x="1040" y="580" width="240" height="20" as="geometry" />
        </mxCell>
        <mxCell id="pYFTRabutMhb-Dyx74qj-79" value="" style="rounded=0;whiteSpace=wrap;html=1;" vertex="1" parent="1">
          <mxGeometry x="1040" y="600" width="240" height="20" as="geometry" />
        </mxCell>
        <mxCell id="pYFTRabutMhb-Dyx74qj-80" value="&lt;font style=&quot;font-size: 10px;&quot;&gt;Запуск на машине разработчика&lt;/font&gt;" style="text;html=1;align=left;verticalAlign=middle;whiteSpace=wrap;rounded=0;" vertex="1" parent="1">
          <mxGeometry x="1070" y="580" width="210" height="20" as="geometry" />
        </mxCell>
        <mxCell id="pYFTRabutMhb-Dyx74qj-81" value="&lt;font style=&quot;font-size: 10px;&quot;&gt;Запуск на Raspberry Pi&lt;br&gt;&lt;/font&gt;" style="text;html=1;align=left;verticalAlign=middle;whiteSpace=wrap;rounded=0;" vertex="1" parent="1">
          <mxGeometry x="1070" y="600" width="210" height="20" as="geometry" />
        </mxCell>
        <mxCell id="pYFTRabutMhb-Dyx74qj-82" value="" style="rounded=0;whiteSpace=wrap;html=1;" vertex="1" parent="1">
          <mxGeometry x="1040" y="620" width="240" height="20" as="geometry" />
        </mxCell>
        <mxCell id="pYFTRabutMhb-Dyx74qj-83" value="&lt;font style=&quot;font-size: 10px;&quot;&gt;SDR Устройства&lt;/font&gt;" style="text;html=1;align=left;verticalAlign=middle;whiteSpace=wrap;rounded=0;" vertex="1" parent="1">
          <mxGeometry x="1070" y="620" width="210" height="20" as="geometry" />
        </mxCell>
        <mxCell id="pYFTRabutMhb-Dyx74qj-84" value="" style="group" vertex="1" connectable="0" parent="1">
          <mxGeometry x="1040" y="640" width="240" height="20" as="geometry" />
        </mxCell>
        <mxCell id="pYFTRabutMhb-Dyx74qj-85" value="" style="rounded=0;whiteSpace=wrap;html=1;align=center;" vertex="1" parent="pYFTRabutMhb-Dyx74qj-84">
          <mxGeometry width="240" height="20" as="geometry" />
        </mxCell>
        <mxCell id="pYFTRabutMhb-Dyx74qj-86" value="" style="triangle;whiteSpace=wrap;html=1;rotation=0;" vertex="1" parent="pYFTRabutMhb-Dyx74qj-84">
          <mxGeometry x="10" y="4.680000000000007" width="10.62" height="10.63" as="geometry" />
        </mxCell>
        <mxCell id="pYFTRabutMhb-Dyx74qj-87" value="&lt;font&gt;Менеджер локаторов&lt;/font&gt;" style="text;html=1;align=left;verticalAlign=middle;whiteSpace=wrap;rounded=0;fontStyle=1" vertex="1" parent="1">
          <mxGeometry x="1070" y="640" width="210" height="20" as="geometry" />
        </mxCell>
        <mxCell id="pYFTRabutMhb-Dyx74qj-88" value="" style="group" vertex="1" connectable="0" parent="1">
          <mxGeometry x="1040" y="660" width="240" height="20" as="geometry" />
        </mxCell>
        <mxCell id="pYFTRabutMhb-Dyx74qj-89" value="" style="rounded=0;whiteSpace=wrap;html=1;align=center;" vertex="1" parent="pYFTRabutMhb-Dyx74qj-88">
          <mxGeometry width="240" height="20" as="geometry" />
        </mxCell>
        <mxCell id="pYFTRabutMhb-Dyx74qj-90" value="" style="triangle;whiteSpace=wrap;html=1;rotation=0;" vertex="1" parent="pYFTRabutMhb-Dyx74qj-88">
          <mxGeometry x="10" y="4.680000000000007" width="10.62" height="10.63" as="geometry" />
        </mxCell>
        <mxCell id="pYFTRabutMhb-Dyx74qj-91" value="&lt;font&gt;Сигналы во временной области&lt;/font&gt;" style="text;html=1;align=left;verticalAlign=middle;whiteSpace=wrap;rounded=0;fontStyle=1" vertex="1" parent="1">
          <mxGeometry x="1070" y="660" width="210" height="20" as="geometry" />
        </mxCell>
        <mxCell id="pYFTRabutMhb-Dyx74qj-92" value="" style="group" vertex="1" connectable="0" parent="1">
          <mxGeometry x="1040" y="680" width="240" height="20" as="geometry" />
        </mxCell>
        <mxCell id="pYFTRabutMhb-Dyx74qj-93" value="" style="rounded=0;whiteSpace=wrap;html=1;align=center;" vertex="1" parent="pYFTRabutMhb-Dyx74qj-92">
          <mxGeometry width="240" height="20" as="geometry" />
        </mxCell>
        <mxCell id="pYFTRabutMhb-Dyx74qj-94" value="" style="triangle;whiteSpace=wrap;html=1;rotation=0;" vertex="1" parent="pYFTRabutMhb-Dyx74qj-92">
          <mxGeometry x="10" y="4.680000000000007" width="10.62" height="10.63" as="geometry" />
        </mxCell>
        <mxCell id="pYFTRabutMhb-Dyx74qj-95" value="&lt;div&gt;&lt;font&gt;Сигналы в частотной области&lt;font&gt;&lt;br&gt;&lt;/font&gt;&lt;/font&gt;&lt;/div&gt;" style="text;html=1;align=left;verticalAlign=middle;whiteSpace=wrap;rounded=0;fontStyle=1" vertex="1" parent="1">
          <mxGeometry x="1070" y="680" width="210" height="20" as="geometry" />
        </mxCell>
        <mxCell id="pYFTRabutMhb-Dyx74qj-96" value="с" style="rounded=0;whiteSpace=wrap;html=1;fillColor=#008a00;strokeColor=#005700;fontColor=#ffffff;" vertex="1" parent="1">
          <mxGeometry x="1760" y="560" width="680" height="320" as="geometry" />
        </mxCell>
        <mxCell id="pYFTRabutMhb-Dyx74qj-97" value="" style="group" vertex="1" connectable="0" parent="1">
          <mxGeometry x="1760" y="560" width="240" height="20" as="geometry" />
        </mxCell>
        <mxCell id="pYFTRabutMhb-Dyx74qj-98" value="" style="rounded=0;whiteSpace=wrap;html=1;align=center;" vertex="1" parent="pYFTRabutMhb-Dyx74qj-97">
          <mxGeometry width="240" height="20" as="geometry" />
        </mxCell>
        <mxCell id="pYFTRabutMhb-Dyx74qj-99" value="" style="triangle;whiteSpace=wrap;html=1;rotation=90;" vertex="1" parent="pYFTRabutMhb-Dyx74qj-97">
          <mxGeometry x="10" y="4.680000000000007" width="10.62" height="10.63" as="geometry" />
        </mxCell>
        <mxCell id="pYFTRabutMhb-Dyx74qj-100" value="" style="rounded=0;whiteSpace=wrap;html=1;" vertex="1" parent="1">
          <mxGeometry x="1760" y="700" width="240" height="180" as="geometry" />
        </mxCell>
        <mxCell id="pYFTRabutMhb-Dyx74qj-101" value="&lt;div&gt;&lt;b&gt;&lt;font style=&quot;&quot;&gt;Менеджер устройств&lt;/font&gt;&lt;/b&gt;&lt;/div&gt;" style="text;html=1;align=left;verticalAlign=middle;whiteSpace=wrap;rounded=0;fontColor=#000000;" vertex="1" parent="1">
          <mxGeometry x="1790" y="560" width="210" height="20" as="geometry" />
        </mxCell>
        <mxCell id="pYFTRabutMhb-Dyx74qj-102" value="" style="rounded=0;whiteSpace=wrap;html=1;fillColor=#008a00;fontColor=#ffffff;strokeColor=#005700;" vertex="1" parent="1">
          <mxGeometry x="1760" y="580" width="240" height="20" as="geometry" />
        </mxCell>
        <mxCell id="pYFTRabutMhb-Dyx74qj-103" value="" style="rounded=0;whiteSpace=wrap;html=1;" vertex="1" parent="1">
          <mxGeometry x="1760" y="600" width="240" height="20" as="geometry" />
        </mxCell>
        <mxCell id="pYFTRabutMhb-Dyx74qj-104" value="&lt;font style=&quot;font-size: 10px; color: light-dark(rgb(255, 255, 255), rgb(237, 237, 237));&quot;&gt;Запуск на машине разработчика&lt;/font&gt;" style="text;html=1;align=left;verticalAlign=middle;whiteSpace=wrap;rounded=0;" vertex="1" parent="1">
          <mxGeometry x="1790" y="580" width="210" height="20" as="geometry" />
        </mxCell>
        <mxCell id="pYFTRabutMhb-Dyx74qj-105" value="&lt;font style=&quot;font-size: 10px;&quot;&gt;Запуск на Raspberry Pi&lt;br&gt;&lt;/font&gt;" style="text;html=1;align=left;verticalAlign=middle;whiteSpace=wrap;rounded=0;fontColor=#000000;" vertex="1" parent="1">
          <mxGeometry x="1790" y="600" width="210" height="20" as="geometry" />
        </mxCell>
        <mxCell id="pYFTRabutMhb-Dyx74qj-106" value="" style="rounded=0;whiteSpace=wrap;html=1;" vertex="1" parent="1">
          <mxGeometry x="1760" y="620" width="240" height="20" as="geometry" />
        </mxCell>
        <mxCell id="pYFTRabutMhb-Dyx74qj-107" value="&lt;font style=&quot;font-size: 10px;&quot;&gt;SDR Устройства&lt;/font&gt;" style="text;html=1;align=left;verticalAlign=middle;whiteSpace=wrap;rounded=0;fontColor=#000000;" vertex="1" parent="1">
          <mxGeometry x="1790" y="620" width="210" height="20" as="geometry" />
        </mxCell>
        <mxCell id="pYFTRabutMhb-Dyx74qj-108" value="" style="group" vertex="1" connectable="0" parent="1">
          <mxGeometry x="1760" y="640" width="240" height="20" as="geometry" />
        </mxCell>
        <mxCell id="pYFTRabutMhb-Dyx74qj-109" value="" style="rounded=0;whiteSpace=wrap;html=1;align=center;" vertex="1" parent="pYFTRabutMhb-Dyx74qj-108">
          <mxGeometry width="240" height="20" as="geometry" />
        </mxCell>
        <mxCell id="pYFTRabutMhb-Dyx74qj-110" value="" style="triangle;whiteSpace=wrap;html=1;rotation=0;" vertex="1" parent="pYFTRabutMhb-Dyx74qj-108">
          <mxGeometry x="10" y="4.680000000000007" width="10.62" height="10.63" as="geometry" />
        </mxCell>
        <mxCell id="pYFTRabutMhb-Dyx74qj-111" value="&lt;font style=&quot;&quot;&gt;Менеджер локаторов&lt;/font&gt;" style="text;html=1;align=left;verticalAlign=middle;whiteSpace=wrap;rounded=0;fontStyle=1;fontColor=#000000;" vertex="1" parent="1">
          <mxGeometry x="1790" y="640" width="210" height="20" as="geometry" />
        </mxCell>
        <mxCell id="pYFTRabutMhb-Dyx74qj-112" value="" style="group" vertex="1" connectable="0" parent="1">
          <mxGeometry x="1760" y="660" width="240" height="20" as="geometry" />
        </mxCell>
        <mxCell id="pYFTRabutMhb-Dyx74qj-113" value="" style="rounded=0;whiteSpace=wrap;html=1;align=center;" vertex="1" parent="pYFTRabutMhb-Dyx74qj-112">
          <mxGeometry width="240" height="20" as="geometry" />
        </mxCell>
        <mxCell id="pYFTRabutMhb-Dyx74qj-114" value="" style="triangle;whiteSpace=wrap;html=1;rotation=0;" vertex="1" parent="pYFTRabutMhb-Dyx74qj-112">
          <mxGeometry x="10" y="4.680000000000007" width="10.62" height="10.63" as="geometry" />
        </mxCell>
        <mxCell id="pYFTRabutMhb-Dyx74qj-115" value="&lt;font style=&quot;&quot;&gt;Сигналы во временной области&lt;/font&gt;" style="text;html=1;align=left;verticalAlign=middle;whiteSpace=wrap;rounded=0;fontStyle=1;fontColor=#000000;" vertex="1" parent="1">
          <mxGeometry x="1790" y="660" width="210" height="20" as="geometry" />
        </mxCell>
        <mxCell id="pYFTRabutMhb-Dyx74qj-116" value="" style="group" vertex="1" connectable="0" parent="1">
          <mxGeometry x="1760" y="680" width="240" height="20" as="geometry" />
        </mxCell>
        <mxCell id="pYFTRabutMhb-Dyx74qj-117" value="" style="rounded=0;whiteSpace=wrap;html=1;align=center;" vertex="1" parent="pYFTRabutMhb-Dyx74qj-116">
          <mxGeometry width="240" height="20" as="geometry" />
        </mxCell>
        <mxCell id="pYFTRabutMhb-Dyx74qj-118" value="" style="triangle;whiteSpace=wrap;html=1;rotation=0;" vertex="1" parent="pYFTRabutMhb-Dyx74qj-116">
          <mxGeometry x="10" y="4.680000000000007" width="10.62" height="10.63" as="geometry" />
        </mxCell>
        <mxCell id="pYFTRabutMhb-Dyx74qj-119" value="&lt;div&gt;&lt;font style=&quot;&quot;&gt;Сигналы в частотной области&lt;font&gt;&lt;br&gt;&lt;/font&gt;&lt;/font&gt;&lt;/div&gt;" style="text;html=1;align=left;verticalAlign=middle;whiteSpace=wrap;rounded=0;fontStyle=1;fontColor=#000000;" vertex="1" parent="1">
          <mxGeometry x="1790" y="680" width="210" height="20" as="geometry" />
        </mxCell>
        <mxCell id="pYFTRabutMhb-Dyx74qj-121" value="" style="rounded=0;whiteSpace=wrap;html=1;" vertex="1" parent="1">
          <mxGeometry x="2010" y="580" width="420" height="290" as="geometry" />
        </mxCell>
        <mxCell id="pYFTRabutMhb-Dyx74qj-122" value="&lt;b&gt;&lt;font style=&quot;font-size: 10px; color: light-dark(rgb(255, 255, 255), rgb(237, 237, 237));&quot;&gt;Запуск на машине разработчика&lt;/font&gt;&lt;/b&gt;" style="text;html=1;align=left;verticalAlign=middle;whiteSpace=wrap;rounded=0;fillColor=#008a00;strokeColor=#005700;fontColor=#ffffff;" vertex="1" parent="1">
          <mxGeometry x="2010" y="560" width="430" height="20" as="geometry" />
        </mxCell>
        <mxCell id="pYFTRabutMhb-Dyx74qj-130" value="&lt;pre&gt; Deployment Mode&lt;/pre&gt;" style="text;html=1;align=center;verticalAlign=middle;whiteSpace=wrap;rounded=0;" vertex="1" parent="1">
          <mxGeometry x="2160" y="620" width="140" height="40" as="geometry" />
        </mxCell>
        <mxCell id="pYFTRabutMhb-Dyx74qj-140" value="" style="rounded=0;whiteSpace=wrap;html=1;strokeColor=light-dark(#77767b, #ededed);" vertex="1" parent="1">
          <mxGeometry x="2020" y="595" width="400" height="265" as="geometry" />
        </mxCell>
        <mxCell id="pYFTRabutMhb-Dyx74qj-141" value="&lt;font style=&quot;font-size: 8px; color: light-dark(rgb(46, 50, 145), rgb(237, 237, 237));&quot;&gt;&lt;b&gt;&lt;font style=&quot;color: light-dark(rgb(46, 50, 145), rgb(237, 237, 237));&quot;&gt;Режимы &lt;font style=&quot;color: light-dark(rgb(46, 50, 145), rgb(237, 237, 237));&quot;&gt;запуска модели&lt;/font&gt;&lt;/font&gt;&lt;/b&gt;&lt;/font&gt;" style="text;html=1;align=center;verticalAlign=middle;whiteSpace=wrap;rounded=0;" vertex="1" parent="1">
          <mxGeometry x="2020" y="595" width="120" height="15" as="geometry" />
        </mxCell>
        <mxCell id="pYFTRabutMhb-Dyx74qj-142" value="" style="rounded=0;whiteSpace=wrap;html=1;strokeColor=light-dark(#77767b, #ededed);" vertex="1" parent="1">
          <mxGeometry x="2030" y="620" width="380" height="70" as="geometry" />
        </mxCell>
        <mxCell id="pYFTRabutMhb-Dyx74qj-144" value="&lt;font style=&quot;color: light-dark(rgb(46, 50, 145), rgb(237, 237, 237)); font-size: 8px;&quot;&gt;&lt;strong&gt;Режим статической загрузки&lt;/strong&gt;&lt;/font&gt;" style="text;html=1;align=center;verticalAlign=middle;whiteSpace=wrap;rounded=0;" vertex="1" parent="1">
          <mxGeometry x="2030" y="620" width="130" height="15" as="geometry" />
        </mxCell>
        <mxCell id="pYFTRabutMhb-Dyx74qj-145" value="" style="rounded=1;whiteSpace=wrap;html=1;fillColor=#008a00;fontColor=#ffffff;strokeColor=#005700;" vertex="1" parent="1">
          <mxGeometry x="2040" y="660" width="120" height="20" as="geometry" />
        </mxCell>
        <mxCell id="pYFTRabutMhb-Dyx74qj-146" value="&lt;font style=&quot;color: light-dark(rgb(255, 255, 255), rgb(237, 237, 237)); font-size: 8px;&quot;&gt;Запустить излучение&lt;br&gt;&lt;/font&gt;" style="text;html=1;align=center;verticalAlign=middle;whiteSpace=wrap;rounded=0;" vertex="1" parent="1">
          <mxGeometry x="2040" y="660" width="120" height="20" as="geometry" />
        </mxCell>
        <mxCell id="pYFTRabutMhb-Dyx74qj-147" value="&lt;div style=&quot;line-height: 80%;&quot;&gt;&lt;div align=&quot;left&quot;&gt;&lt;font style=&quot;color: light-dark(rgb(46, 50, 145), rgb(237, 237, 237)); font-size: 8px; line-height: 80%;&quot;&gt;Код загружается в устройство как фиксированная прошивка, где все параметры жестко заданы на этапе компиляции.&lt;/font&gt;&lt;/div&gt;&lt;/div&gt;" style="text;html=1;align=left;verticalAlign=middle;whiteSpace=wrap;rounded=0;" vertex="1" parent="1">
          <mxGeometry x="2040" y="635" width="360" height="20" as="geometry" />
        </mxCell>
        <mxCell id="pYFTRabutMhb-Dyx74qj-151" value="" style="rounded=0;whiteSpace=wrap;html=1;strokeColor=light-dark(#77767b, #ededed);" vertex="1" parent="1">
          <mxGeometry x="2030" y="692.5" width="380" height="77.5" as="geometry" />
        </mxCell>
        <mxCell id="pYFTRabutMhb-Dyx74qj-152" value="&lt;font style=&quot;color: light-dark(rgb(46, 50, 145), rgb(237, 237, 237)); font-size: 8px;&quot;&gt;&lt;strong&gt;Режим статической загрузки&lt;/strong&gt;&lt;/font&gt;" style="text;html=1;align=center;verticalAlign=middle;whiteSpace=wrap;rounded=0;" vertex="1" parent="1">
          <mxGeometry x="2030" y="692.5" width="130" height="15" as="geometry" />
        </mxCell>
        <mxCell id="pYFTRabutMhb-Dyx74qj-155" value="&lt;div style=&quot;line-height: 80%;&quot;&gt;&lt;div align=&quot;left&quot;&gt;&lt;font style=&quot;font-size: 8px; color: light-dark(rgb(46, 50, 145), rgb(237, 237, 237));&quot;&gt;Код загружается с поддержкой протокола XCP (Universal Measurement and &lt;br&gt;Calibration Protocol), что позволяет изменять параметры излучаемого сигнала в реальном &lt;br&gt;времени&lt;br&gt;&lt;/font&gt;&lt;/div&gt;&lt;/div&gt;" style="text;html=1;align=left;verticalAlign=middle;whiteSpace=wrap;rounded=0;" vertex="1" parent="1">
          <mxGeometry x="2040" y="707.5" width="360" height="32.5" as="geometry" />
        </mxCell>
        <mxCell id="pYFTRabutMhb-Dyx74qj-158" value="" style="rounded=1;whiteSpace=wrap;html=1;fillColor=#008a00;fontColor=#ffffff;strokeColor=#005700;" vertex="1" parent="1">
          <mxGeometry x="2040" y="740" width="120" height="20" as="geometry" />
        </mxCell>
        <mxCell id="pYFTRabutMhb-Dyx74qj-159" value="&lt;font style=&quot;color: light-dark(rgb(255, 255, 255), rgb(237, 237, 237)); font-size: 8px;&quot;&gt;Запустить излучение&lt;br&gt;&lt;/font&gt;" style="text;html=1;align=center;verticalAlign=middle;whiteSpace=wrap;rounded=0;" vertex="1" parent="1">
          <mxGeometry x="2040" y="740" width="120" height="20" as="geometry" />
        </mxCell>
        <mxCell id="pYFTRabutMhb-Dyx74qj-160" value="" style="rounded=1;whiteSpace=wrap;html=1;fillColor=#008a00;fontColor=#ffffff;strokeColor=#005700;" vertex="1" parent="1">
          <mxGeometry x="2040" y="780" width="120" height="20" as="geometry" />
        </mxCell>
        <mxCell id="pYFTRabutMhb-Dyx74qj-161" value="&lt;font style=&quot;color: light-dark(rgb(255, 255, 255), rgb(237, 237, 237)); font-size: 8px;&quot;&gt;Остановить излучение&lt;br&gt;&lt;/font&gt;" style="text;html=1;align=center;verticalAlign=middle;whiteSpace=wrap;rounded=0;" vertex="1" parent="1">
          <mxGeometry x="2040" y="780" width="110" height="20" as="geometry" />
        </mxCell>
        <mxCell id="pYFTRabutMhb-Dyx74qj-203" value="" style="rounded=0;whiteSpace=wrap;html=1;fillColor=#008a00;strokeColor=#005700;fontColor=#ffffff;" vertex="1" parent="1">
          <mxGeometry x="2480" y="560" width="680" height="320" as="geometry" />
        </mxCell>
        <mxCell id="pYFTRabutMhb-Dyx74qj-204" value="" style="group" vertex="1" connectable="0" parent="1">
          <mxGeometry x="2480" y="560" width="240" height="20" as="geometry" />
        </mxCell>
        <mxCell id="pYFTRabutMhb-Dyx74qj-205" value="" style="rounded=0;whiteSpace=wrap;html=1;align=center;" vertex="1" parent="pYFTRabutMhb-Dyx74qj-204">
          <mxGeometry width="240" height="20" as="geometry" />
        </mxCell>
        <mxCell id="pYFTRabutMhb-Dyx74qj-206" value="" style="triangle;whiteSpace=wrap;html=1;rotation=90;" vertex="1" parent="pYFTRabutMhb-Dyx74qj-204">
          <mxGeometry x="10" y="4.680000000000007" width="10.62" height="10.63" as="geometry" />
        </mxCell>
        <mxCell id="pYFTRabutMhb-Dyx74qj-207" value="" style="rounded=0;whiteSpace=wrap;html=1;" vertex="1" parent="1">
          <mxGeometry x="2480" y="700" width="240" height="180" as="geometry" />
        </mxCell>
        <mxCell id="pYFTRabutMhb-Dyx74qj-208" value="&lt;div&gt;&lt;font&gt;Менеджер устройств&lt;/font&gt;&lt;/div&gt;" style="text;html=1;align=left;verticalAlign=middle;whiteSpace=wrap;rounded=0;fontStyle=1" vertex="1" parent="1">
          <mxGeometry x="2510" y="560" width="210" height="20" as="geometry" />
        </mxCell>
        <mxCell id="pYFTRabutMhb-Dyx74qj-209" value="" style="rounded=0;whiteSpace=wrap;html=1;" vertex="1" parent="1">
          <mxGeometry x="2480" y="580" width="240" height="20" as="geometry" />
        </mxCell>
        <mxCell id="pYFTRabutMhb-Dyx74qj-210" value="" style="rounded=0;whiteSpace=wrap;html=1;fillColor=#008a00;fontColor=#ffffff;strokeColor=#005700;" vertex="1" parent="1">
          <mxGeometry x="2480" y="600" width="240" height="20" as="geometry" />
        </mxCell>
        <mxCell id="pYFTRabutMhb-Dyx74qj-211" value="&lt;font style=&quot;font-size: 10px;&quot;&gt;Запуск на машине разработчика&lt;/font&gt;" style="text;html=1;align=left;verticalAlign=middle;whiteSpace=wrap;rounded=0;" vertex="1" parent="1">
          <mxGeometry x="2510" y="580" width="210" height="20" as="geometry" />
        </mxCell>
        <mxCell id="pYFTRabutMhb-Dyx74qj-212" value="&lt;font style=&quot;font-size: 10px; color: light-dark(rgb(255, 255, 255), rgb(237, 237, 237));&quot;&gt;Запуск на Raspberry Pi&lt;br&gt;&lt;/font&gt;" style="text;html=1;align=left;verticalAlign=middle;whiteSpace=wrap;rounded=0;" vertex="1" parent="1">
          <mxGeometry x="2510" y="600" width="210" height="20" as="geometry" />
        </mxCell>
        <mxCell id="pYFTRabutMhb-Dyx74qj-213" value="" style="rounded=0;whiteSpace=wrap;html=1;" vertex="1" parent="1">
          <mxGeometry x="2480" y="620" width="240" height="20" as="geometry" />
        </mxCell>
        <mxCell id="pYFTRabutMhb-Dyx74qj-214" value="&lt;font style=&quot;font-size: 10px;&quot;&gt;SDR Устройства&lt;/font&gt;" style="text;html=1;align=left;verticalAlign=middle;whiteSpace=wrap;rounded=0;" vertex="1" parent="1">
          <mxGeometry x="2510" y="620" width="210" height="20" as="geometry" />
        </mxCell>
        <mxCell id="pYFTRabutMhb-Dyx74qj-215" value="" style="group" vertex="1" connectable="0" parent="1">
          <mxGeometry x="2480" y="640" width="240" height="20" as="geometry" />
        </mxCell>
        <mxCell id="pYFTRabutMhb-Dyx74qj-216" value="" style="rounded=0;whiteSpace=wrap;html=1;align=center;" vertex="1" parent="pYFTRabutMhb-Dyx74qj-215">
          <mxGeometry width="240" height="20" as="geometry" />
        </mxCell>
        <mxCell id="pYFTRabutMhb-Dyx74qj-217" value="" style="triangle;whiteSpace=wrap;html=1;rotation=0;" vertex="1" parent="pYFTRabutMhb-Dyx74qj-215">
          <mxGeometry x="10" y="4.680000000000007" width="10.62" height="10.63" as="geometry" />
        </mxCell>
        <mxCell id="pYFTRabutMhb-Dyx74qj-218" value="&lt;font&gt;Менеджер локаторов&lt;/font&gt;" style="text;html=1;align=left;verticalAlign=middle;whiteSpace=wrap;rounded=0;fontStyle=1" vertex="1" parent="1">
          <mxGeometry x="2510" y="640" width="210" height="20" as="geometry" />
        </mxCell>
        <mxCell id="pYFTRabutMhb-Dyx74qj-219" value="" style="group" vertex="1" connectable="0" parent="1">
          <mxGeometry x="2480" y="660" width="240" height="20" as="geometry" />
        </mxCell>
        <mxCell id="pYFTRabutMhb-Dyx74qj-220" value="" style="rounded=0;whiteSpace=wrap;html=1;align=center;" vertex="1" parent="pYFTRabutMhb-Dyx74qj-219">
          <mxGeometry width="240" height="20" as="geometry" />
        </mxCell>
        <mxCell id="pYFTRabutMhb-Dyx74qj-221" value="" style="triangle;whiteSpace=wrap;html=1;rotation=0;" vertex="1" parent="pYFTRabutMhb-Dyx74qj-219">
          <mxGeometry x="10" y="4.680000000000007" width="10.62" height="10.63" as="geometry" />
        </mxCell>
        <mxCell id="pYFTRabutMhb-Dyx74qj-222" value="&lt;font&gt;Сигналы во временной области&lt;/font&gt;" style="text;html=1;align=left;verticalAlign=middle;whiteSpace=wrap;rounded=0;fontStyle=1" vertex="1" parent="1">
          <mxGeometry x="2510" y="660" width="210" height="20" as="geometry" />
        </mxCell>
        <mxCell id="pYFTRabutMhb-Dyx74qj-223" value="" style="group" vertex="1" connectable="0" parent="1">
          <mxGeometry x="2480" y="680" width="240" height="20" as="geometry" />
        </mxCell>
        <mxCell id="pYFTRabutMhb-Dyx74qj-224" value="" style="rounded=0;whiteSpace=wrap;html=1;align=center;" vertex="1" parent="pYFTRabutMhb-Dyx74qj-223">
          <mxGeometry width="240" height="20" as="geometry" />
        </mxCell>
        <mxCell id="pYFTRabutMhb-Dyx74qj-225" value="" style="triangle;whiteSpace=wrap;html=1;rotation=0;" vertex="1" parent="pYFTRabutMhb-Dyx74qj-223">
          <mxGeometry x="10" y="4.680000000000007" width="10.62" height="10.63" as="geometry" />
        </mxCell>
        <mxCell id="pYFTRabutMhb-Dyx74qj-226" value="&lt;div&gt;&lt;font&gt;Сигналы в частотной области&lt;font&gt;&lt;br&gt;&lt;/font&gt;&lt;/font&gt;&lt;/div&gt;" style="text;html=1;align=left;verticalAlign=middle;whiteSpace=wrap;rounded=0;fontStyle=1" vertex="1" parent="1">
          <mxGeometry x="2510" y="680" width="210" height="20" as="geometry" />
        </mxCell>
        <mxCell id="pYFTRabutMhb-Dyx74qj-227" value="" style="rounded=0;whiteSpace=wrap;html=1;" vertex="1" parent="1">
          <mxGeometry x="2730" y="580" width="420" height="290" as="geometry" />
        </mxCell>
        <mxCell id="pYFTRabutMhb-Dyx74qj-228" value="&lt;b&gt;&lt;font style=&quot;font-size: 10px; color: light-dark(rgb(255, 255, 255), rgb(237, 237, 237));&quot;&gt;Запуск на &lt;/font&gt;&lt;font style=&quot;font-size: 10px; color: light-dark(rgb(255, 255, 255), rgb(237, 237, 237));&quot;&gt;Raspberry Pi&lt;/font&gt;&lt;/b&gt;" style="text;html=1;align=left;verticalAlign=middle;whiteSpace=wrap;rounded=0;fillColor=#008a00;strokeColor=#005700;fontColor=#ffffff;" vertex="1" parent="1">
          <mxGeometry x="2730" y="560" width="430" height="20" as="geometry" />
        </mxCell>
        <mxCell id="pYFTRabutMhb-Dyx74qj-230" value="" style="rounded=0;whiteSpace=wrap;html=1;strokeColor=light-dark(#77767b, #ededed);" vertex="1" parent="1">
          <mxGeometry x="2740" y="685" width="400" height="210" as="geometry" />
        </mxCell>
        <mxCell id="pYFTRabutMhb-Dyx74qj-231" value="&lt;font style=&quot;font-size: 8px; color: light-dark(rgb(46, 50, 145), rgb(237, 237, 237));&quot;&gt;&lt;b&gt;&lt;font style=&quot;color: light-dark(rgb(46, 50, 145), rgb(237, 237, 237));&quot;&gt;Режимы &lt;font style=&quot;color: light-dark(rgb(46, 50, 145), rgb(237, 237, 237));&quot;&gt;запуска модели&lt;/font&gt;&lt;/font&gt;&lt;/b&gt;&lt;/font&gt;" style="text;html=1;align=center;verticalAlign=middle;whiteSpace=wrap;rounded=0;" vertex="1" parent="1">
          <mxGeometry x="2740" y="685" width="120" height="15" as="geometry" />
        </mxCell>
        <mxCell id="pYFTRabutMhb-Dyx74qj-232" value="" style="rounded=0;whiteSpace=wrap;html=1;strokeColor=light-dark(#77767b, #ededed);" vertex="1" parent="1">
          <mxGeometry x="2750" y="705" width="380" height="70" as="geometry" />
        </mxCell>
        <mxCell id="pYFTRabutMhb-Dyx74qj-233" value="&lt;font style=&quot;color: light-dark(rgb(46, 50, 145), rgb(237, 237, 237)); font-size: 8px;&quot;&gt;&lt;strong&gt;Режим статической загрузки&lt;/strong&gt;&lt;/font&gt;" style="text;html=1;align=center;verticalAlign=middle;whiteSpace=wrap;rounded=0;" vertex="1" parent="1">
          <mxGeometry x="2750" y="710" width="130" height="15" as="geometry" />
        </mxCell>
        <mxCell id="pYFTRabutMhb-Dyx74qj-234" value="" style="rounded=1;whiteSpace=wrap;html=1;fillColor=#008a00;fontColor=#ffffff;strokeColor=#005700;" vertex="1" parent="1">
          <mxGeometry x="2760" y="750" width="120" height="20" as="geometry" />
        </mxCell>
        <mxCell id="pYFTRabutMhb-Dyx74qj-235" value="&lt;font style=&quot;color: light-dark(rgb(255, 255, 255), rgb(237, 237, 237)); font-size: 8px;&quot;&gt;Запустить излучение&lt;br&gt;&lt;/font&gt;" style="text;html=1;align=center;verticalAlign=middle;whiteSpace=wrap;rounded=0;" vertex="1" parent="1">
          <mxGeometry x="2760" y="750" width="110" height="20" as="geometry" />
        </mxCell>
        <mxCell id="pYFTRabutMhb-Dyx74qj-236" value="&lt;div style=&quot;line-height: 80%;&quot;&gt;&lt;div align=&quot;left&quot;&gt;&lt;font style=&quot;color: light-dark(rgb(46, 50, 145), rgb(237, 237, 237)); font-size: 8px; line-height: 80%;&quot;&gt;Код загружается в устройство как фиксированная прошивка, где все параметры жестко заданы на этапе компиляции.&lt;/font&gt;&lt;/div&gt;&lt;/div&gt;" style="text;html=1;align=left;verticalAlign=middle;whiteSpace=wrap;rounded=0;" vertex="1" parent="1">
          <mxGeometry x="2760" y="725" width="360" height="20" as="geometry" />
        </mxCell>
        <mxCell id="pYFTRabutMhb-Dyx74qj-237" value="" style="rounded=0;whiteSpace=wrap;html=1;strokeColor=light-dark(#77767b, #ededed);" vertex="1" parent="1">
          <mxGeometry x="2750" y="782.5" width="380" height="77.5" as="geometry" />
        </mxCell>
        <mxCell id="pYFTRabutMhb-Dyx74qj-238" value="&lt;font style=&quot;color: light-dark(rgb(46, 50, 145), rgb(237, 237, 237)); font-size: 8px;&quot;&gt;&lt;strong&gt;Режим статической загрузки&lt;/strong&gt;&lt;/font&gt;" style="text;html=1;align=center;verticalAlign=middle;whiteSpace=wrap;rounded=0;" vertex="1" parent="1">
          <mxGeometry x="2750" y="782.5" width="130" height="15" as="geometry" />
        </mxCell>
        <mxCell id="pYFTRabutMhb-Dyx74qj-239" value="&lt;div style=&quot;line-height: 80%;&quot;&gt;&lt;div align=&quot;left&quot;&gt;&lt;font style=&quot;font-size: 8px; color: light-dark(rgb(46, 50, 145), rgb(237, 237, 237));&quot;&gt;Код загружается с поддержкой протокола XCP (Universal Measurement and &lt;br&gt;Calibration Protocol), что позволяет изменять параметры излучаемого сигнала в реальном &lt;br&gt;времени&lt;br&gt;&lt;/font&gt;&lt;/div&gt;&lt;/div&gt;" style="text;html=1;align=left;verticalAlign=middle;whiteSpace=wrap;rounded=0;" vertex="1" parent="1">
          <mxGeometry x="2760" y="797.5" width="360" height="32.5" as="geometry" />
        </mxCell>
        <mxCell id="pYFTRabutMhb-Dyx74qj-240" value="" style="rounded=1;whiteSpace=wrap;html=1;fillColor=#008a00;fontColor=#ffffff;strokeColor=#005700;" vertex="1" parent="1">
          <mxGeometry x="2760" y="830" width="120" height="20" as="geometry" />
        </mxCell>
        <mxCell id="pYFTRabutMhb-Dyx74qj-241" value="&lt;font style=&quot;color: light-dark(rgb(255, 255, 255), rgb(237, 237, 237)); font-size: 8px;&quot;&gt;Запустить излучение&lt;br&gt;&lt;/font&gt;" style="text;html=1;align=center;verticalAlign=middle;whiteSpace=wrap;rounded=0;" vertex="1" parent="1">
          <mxGeometry x="2760" y="830" width="110" height="20" as="geometry" />
        </mxCell>
        <mxCell id="pYFTRabutMhb-Dyx74qj-242" value="" style="rounded=1;whiteSpace=wrap;html=1;fillColor=#008a00;fontColor=#ffffff;strokeColor=#005700;" vertex="1" parent="1">
          <mxGeometry x="2760" y="870" width="120" height="20" as="geometry" />
        </mxCell>
        <mxCell id="pYFTRabutMhb-Dyx74qj-243" value="&lt;font style=&quot;color: light-dark(rgb(255, 255, 255), rgb(237, 237, 237)); font-size: 8px;&quot;&gt;Остановить излучение&lt;br&gt;&lt;/font&gt;" style="text;html=1;align=center;verticalAlign=middle;whiteSpace=wrap;rounded=0;" vertex="1" parent="1">
          <mxGeometry x="2760" y="870" width="110" height="20" as="geometry" />
        </mxCell>
        <mxCell id="pYFTRabutMhb-Dyx74qj-245" value="" style="rounded=0;whiteSpace=wrap;html=1;strokeColor=light-dark(#77767b, #ededed);" vertex="1" parent="1">
          <mxGeometry x="2740" y="587.5" width="400" height="92.5" as="geometry" />
        </mxCell>
        <mxCell id="pYFTRabutMhb-Dyx74qj-246" value="&lt;b&gt;&lt;font style=&quot;font-size: 8px; color: light-dark(rgb(46, 50, 145), rgb(237, 237, 237));&quot;&gt;Подключение&lt;/font&gt;&lt;/b&gt;" style="text;html=1;align=center;verticalAlign=middle;whiteSpace=wrap;rounded=0;" vertex="1" parent="1">
          <mxGeometry x="2740" y="587.5" width="80" height="15" as="geometry" />
        </mxCell>
        <mxCell id="pYFTRabutMhb-Dyx74qj-247" value="" style="rounded=0;whiteSpace=wrap;html=1;strokeColor=light-dark(#77767b, #ededed);" vertex="1" parent="1">
          <mxGeometry x="2750" y="602.5" width="380" height="67.5" as="geometry" />
        </mxCell>
        <mxCell id="pYFTRabutMhb-Dyx74qj-248" value="&lt;div align=&quot;right&quot;&gt;&lt;font style=&quot;font-size: 8px; color: light-dark(rgb(46, 50, 145), rgb(237, 237, 237));&quot;&gt;IP адрес:&lt;/font&gt;&lt;/div&gt;" style="text;html=1;align=right;verticalAlign=middle;whiteSpace=wrap;rounded=0;" vertex="1" parent="1">
          <mxGeometry x="2750" y="607.5" width="50" height="20" as="geometry" />
        </mxCell>
        <mxCell id="pYFTRabutMhb-Dyx74qj-249" value="&lt;div align=&quot;right&quot;&gt;&lt;font style=&quot;font-size: 8px; color: light-dark(rgb(46, 50, 145), rgb(237, 237, 237));&quot;&gt;Пароль:&lt;/font&gt;&lt;/div&gt;" style="text;html=1;align=right;verticalAlign=middle;whiteSpace=wrap;rounded=0;" vertex="1" parent="1">
          <mxGeometry x="2750" y="627.5" width="50" height="17.5" as="geometry" />
        </mxCell>
        <mxCell id="pYFTRabutMhb-Dyx74qj-250" value="&lt;font style=&quot;font-size: 8px; color: light-dark(rgb(119, 118, 123), rgb(237, 237, 237));&quot;&gt;121.0.0.1&lt;/font&gt;" style="rounded=1;whiteSpace=wrap;html=1;strokeColor=light-dark(#3d3846, #ededed);" vertex="1" parent="1">
          <mxGeometry x="2800" y="611.88" width="120" height="13.75" as="geometry" />
        </mxCell>
        <mxCell id="pYFTRabutMhb-Dyx74qj-251" value="&lt;font style=&quot;font-size: 8px; color: light-dark(rgb(119, 118, 123), rgb(237, 237, 237));&quot;&gt;root&lt;/font&gt;" style="rounded=1;whiteSpace=wrap;html=1;strokeColor=light-dark(#3d3846, #ededed);" vertex="1" parent="1">
          <mxGeometry x="2800" y="629.38" width="120" height="13.75" as="geometry" />
        </mxCell>
        <mxCell id="pYFTRabutMhb-Dyx74qj-252" value="&lt;b&gt;&lt;font style=&quot;font-size: 8px; color: light-dark(rgb(46, 50, 145), rgb(237, 237, 237));&quot;&gt;Статус&lt;/font&gt;&lt;/b&gt;" style="text;html=1;align=right;verticalAlign=middle;whiteSpace=wrap;rounded=0;" vertex="1" parent="1">
          <mxGeometry x="2930" y="613.75" width="30" height="21.25" as="geometry" />
        </mxCell>
        <mxCell id="pYFTRabutMhb-Dyx74qj-254" value="" style="rounded=1;whiteSpace=wrap;html=1;fillColor=#008a00;fontColor=#ffffff;strokeColor=#005700;" vertex="1" parent="1">
          <mxGeometry x="2800" y="645" width="120" height="20" as="geometry" />
        </mxCell>
        <mxCell id="pYFTRabutMhb-Dyx74qj-255" value="&lt;font style=&quot;font-size: 8px; color: light-dark(rgb(255, 255, 255), rgb(237, 237, 237));&quot;&gt;Подключиться&lt;/font&gt;" style="text;html=1;align=center;verticalAlign=middle;whiteSpace=wrap;rounded=0;" vertex="1" parent="1">
          <mxGeometry x="2805" y="645" width="110" height="20" as="geometry" />
        </mxCell>
        <mxCell id="pYFTRabutMhb-Dyx74qj-257" value="" style="rounded=0;whiteSpace=wrap;html=1;strokeColor=light-dark(#77767b, #ededed);" vertex="1" parent="1">
          <mxGeometry x="2930" y="630" width="190" height="30" as="geometry" />
        </mxCell>
        <mxCell id="pYFTRabutMhb-Dyx74qj-253" value="&lt;div align=&quot;left&quot;&gt;&lt;font style=&quot;font-size: 8px;&quot;&gt;&lt;span style=&quot;color: light-dark(rgb(0, 192, 35), rgb(237, 237, 237));&quot;&gt;CONNECTED&lt;/span&gt;&lt;/font&gt;&lt;/div&gt;" style="text;html=1;align=left;verticalAlign=middle;whiteSpace=wrap;rounded=0;" vertex="1" parent="1">
          <mxGeometry x="2990" y="637.5" width="50" height="15" as="geometry" />
        </mxCell>
        <mxCell id="pYFTRabutMhb-Dyx74qj-261" value="&lt;span style=&quot;color: light-dark(rgb(46, 50, 145), rgb(237, 237, 237));&quot;&gt;&lt;font style=&quot;font-size: 8px;&quot;&gt;Rasberry PI:&lt;/font&gt;&lt;/span&gt;" style="text;html=1;align=center;verticalAlign=middle;whiteSpace=wrap;rounded=0;" vertex="1" parent="1">
          <mxGeometry x="2930" y="637.5" width="60" height="15" as="geometry" />
        </mxCell>
        <mxCell id="pYFTRabutMhb-Dyx74qj-263" value="" style="rounded=0;whiteSpace=wrap;html=1;fillColor=#f5f5f5;gradientColor=#b3b3b3;strokeColor=#666666;" vertex="1" parent="1">
          <mxGeometry x="3140" y="580.88" width="10" height="289.12" as="geometry" />
        </mxCell>
        <mxCell id="pYFTRabutMhb-Dyx74qj-264" value="" style="rounded=0;whiteSpace=wrap;html=1;fillColor=#647687;fontColor=#ffffff;strokeColor=#314354;" vertex="1" parent="1">
          <mxGeometry x="3140" y="723" width="10" height="17" as="geometry" />
        </mxCell>
        <mxCell id="pYFTRabutMhb-Dyx74qj-306" value="с" style="rounded=0;whiteSpace=wrap;html=1;fillColor=#008a00;strokeColor=#005700;fontColor=#ffffff;" vertex="1" parent="1">
          <mxGeometry x="3200" y="560" width="680" height="320" as="geometry" />
        </mxCell>
        <mxCell id="pYFTRabutMhb-Dyx74qj-307" value="" style="group" vertex="1" connectable="0" parent="1">
          <mxGeometry x="3200" y="560" width="240" height="20" as="geometry" />
        </mxCell>
        <mxCell id="pYFTRabutMhb-Dyx74qj-308" value="" style="rounded=0;whiteSpace=wrap;html=1;align=center;" vertex="1" parent="pYFTRabutMhb-Dyx74qj-307">
          <mxGeometry width="240" height="20" as="geometry" />
        </mxCell>
        <mxCell id="pYFTRabutMhb-Dyx74qj-309" value="" style="triangle;whiteSpace=wrap;html=1;rotation=90;" vertex="1" parent="pYFTRabutMhb-Dyx74qj-307">
          <mxGeometry x="10" y="4.680000000000007" width="10.62" height="10.63" as="geometry" />
        </mxCell>
        <mxCell id="pYFTRabutMhb-Dyx74qj-310" value="" style="rounded=0;whiteSpace=wrap;html=1;" vertex="1" parent="1">
          <mxGeometry x="3200" y="700" width="240" height="180" as="geometry" />
        </mxCell>
        <mxCell id="pYFTRabutMhb-Dyx74qj-311" value="&lt;div&gt;&lt;font&gt;Менеджер устройств&lt;/font&gt;&lt;/div&gt;" style="text;html=1;align=left;verticalAlign=middle;whiteSpace=wrap;rounded=0;fontStyle=1" vertex="1" parent="1">
          <mxGeometry x="3230" y="560" width="210" height="20" as="geometry" />
        </mxCell>
        <mxCell id="pYFTRabutMhb-Dyx74qj-312" value="" style="rounded=0;whiteSpace=wrap;html=1;" vertex="1" parent="1">
          <mxGeometry x="3200" y="580" width="240" height="20" as="geometry" />
        </mxCell>
        <mxCell id="pYFTRabutMhb-Dyx74qj-313" value="" style="rounded=0;whiteSpace=wrap;html=1;" vertex="1" parent="1">
          <mxGeometry x="3200" y="600" width="240" height="20" as="geometry" />
        </mxCell>
        <mxCell id="pYFTRabutMhb-Dyx74qj-314" value="&lt;font style=&quot;font-size: 10px; color: rgb(0, 0, 0);&quot;&gt;Запуск на машине разработчика&lt;/font&gt;" style="text;html=1;align=left;verticalAlign=middle;whiteSpace=wrap;rounded=0;" vertex="1" parent="1">
          <mxGeometry x="3230" y="580" width="210" height="20" as="geometry" />
        </mxCell>
        <mxCell id="pYFTRabutMhb-Dyx74qj-315" value="&lt;font style=&quot;font-size: 10px;&quot;&gt;Запуск на Raspberry Pi&lt;br&gt;&lt;/font&gt;" style="text;html=1;align=left;verticalAlign=middle;whiteSpace=wrap;rounded=0;" vertex="1" parent="1">
          <mxGeometry x="3230" y="600" width="210" height="20" as="geometry" />
        </mxCell>
        <mxCell id="pYFTRabutMhb-Dyx74qj-316" value="" style="rounded=0;whiteSpace=wrap;html=1;fontColor=light-dark(#1c531e, #ededed);" vertex="1" parent="1">
          <mxGeometry x="3440" y="620" height="20" as="geometry" />
        </mxCell>
        <mxCell id="pYFTRabutMhb-Dyx74qj-317" value="&lt;font style=&quot;font-size: 10px; color: rgb(255, 255, 255);&quot;&gt;SDR Устройства&lt;/font&gt;" style="text;html=1;align=left;verticalAlign=middle;whiteSpace=wrap;rounded=0;" vertex="1" parent="1">
          <mxGeometry x="3230" y="620" width="210" height="20" as="geometry" />
        </mxCell>
        <mxCell id="pYFTRabutMhb-Dyx74qj-318" value="" style="group" vertex="1" connectable="0" parent="1">
          <mxGeometry x="3200" y="640" width="240" height="20" as="geometry" />
        </mxCell>
        <mxCell id="pYFTRabutMhb-Dyx74qj-319" value="" style="rounded=0;whiteSpace=wrap;html=1;align=center;" vertex="1" parent="pYFTRabutMhb-Dyx74qj-318">
          <mxGeometry width="240" height="20" as="geometry" />
        </mxCell>
        <mxCell id="pYFTRabutMhb-Dyx74qj-320" value="" style="triangle;whiteSpace=wrap;html=1;rotation=0;" vertex="1" parent="pYFTRabutMhb-Dyx74qj-318">
          <mxGeometry x="10" y="4.680000000000007" width="10.62" height="10.63" as="geometry" />
        </mxCell>
        <mxCell id="pYFTRabutMhb-Dyx74qj-321" value="&lt;font&gt;Менеджер локаторов&lt;/font&gt;" style="text;html=1;align=left;verticalAlign=middle;whiteSpace=wrap;rounded=0;fontStyle=1" vertex="1" parent="1">
          <mxGeometry x="3230" y="640" width="210" height="20" as="geometry" />
        </mxCell>
        <mxCell id="pYFTRabutMhb-Dyx74qj-322" value="" style="group" vertex="1" connectable="0" parent="1">
          <mxGeometry x="3200" y="660" width="240" height="20" as="geometry" />
        </mxCell>
        <mxCell id="pYFTRabutMhb-Dyx74qj-323" value="" style="rounded=0;whiteSpace=wrap;html=1;align=center;" vertex="1" parent="pYFTRabutMhb-Dyx74qj-322">
          <mxGeometry width="240" height="20" as="geometry" />
        </mxCell>
        <mxCell id="pYFTRabutMhb-Dyx74qj-324" value="" style="triangle;whiteSpace=wrap;html=1;rotation=0;" vertex="1" parent="pYFTRabutMhb-Dyx74qj-322">
          <mxGeometry x="10" y="4.680000000000007" width="10.62" height="10.63" as="geometry" />
        </mxCell>
        <mxCell id="pYFTRabutMhb-Dyx74qj-325" value="&lt;font&gt;Сигналы во временной области&lt;/font&gt;" style="text;html=1;align=left;verticalAlign=middle;whiteSpace=wrap;rounded=0;fontStyle=1" vertex="1" parent="1">
          <mxGeometry x="3230" y="660" width="210" height="20" as="geometry" />
        </mxCell>
        <mxCell id="pYFTRabutMhb-Dyx74qj-326" value="" style="group" vertex="1" connectable="0" parent="1">
          <mxGeometry x="3200" y="680" width="240" height="20" as="geometry" />
        </mxCell>
        <mxCell id="pYFTRabutMhb-Dyx74qj-327" value="" style="rounded=0;whiteSpace=wrap;html=1;align=center;" vertex="1" parent="pYFTRabutMhb-Dyx74qj-326">
          <mxGeometry width="240" height="20" as="geometry" />
        </mxCell>
        <mxCell id="pYFTRabutMhb-Dyx74qj-328" value="" style="triangle;whiteSpace=wrap;html=1;rotation=0;" vertex="1" parent="pYFTRabutMhb-Dyx74qj-326">
          <mxGeometry x="10" y="4.680000000000007" width="10.62" height="10.63" as="geometry" />
        </mxCell>
        <mxCell id="pYFTRabutMhb-Dyx74qj-329" value="&lt;div&gt;&lt;font&gt;Сигналы в частотной области&lt;font&gt;&lt;br&gt;&lt;/font&gt;&lt;/font&gt;&lt;/div&gt;" style="text;html=1;align=left;verticalAlign=middle;whiteSpace=wrap;rounded=0;fontStyle=1" vertex="1" parent="1">
          <mxGeometry x="3230" y="680" width="210" height="20" as="geometry" />
        </mxCell>
        <mxCell id="pYFTRabutMhb-Dyx74qj-330" value="" style="rounded=0;whiteSpace=wrap;html=1;" vertex="1" parent="1">
          <mxGeometry x="3450" y="580" width="420" height="290" as="geometry" />
        </mxCell>
        <mxCell id="pYFTRabutMhb-Dyx74qj-331" value="&lt;b&gt;&lt;font style=&quot;font-size: 10px; color: light-dark(rgb(255, 255, 255), rgb(237, 237, 237));&quot;&gt;SDR устройства&lt;/font&gt;&lt;/b&gt;" style="text;html=1;align=left;verticalAlign=middle;whiteSpace=wrap;rounded=0;fillColor=#008a00;strokeColor=#005700;fontColor=#ffffff;" vertex="1" parent="1">
          <mxGeometry x="3450" y="560" width="430" height="20" as="geometry" />
        </mxCell>
        <mxCell id="pYFTRabutMhb-Dyx74qj-348" value="" style="rounded=0;whiteSpace=wrap;html=1;fontColor=light-dark(#009900,#EDEDED);" vertex="1" parent="1">
          <mxGeometry x="1040" y="920" width="680" height="320" as="geometry" />
        </mxCell>
        <mxCell id="pYFTRabutMhb-Dyx74qj-349" value="" style="group" vertex="1" connectable="0" parent="1">
          <mxGeometry x="1040" y="920" width="240" height="20" as="geometry" />
        </mxCell>
        <mxCell id="pYFTRabutMhb-Dyx74qj-350" value="" style="rounded=0;whiteSpace=wrap;html=1;align=center;" vertex="1" parent="pYFTRabutMhb-Dyx74qj-349">
          <mxGeometry width="240" height="20" as="geometry" />
        </mxCell>
        <mxCell id="pYFTRabutMhb-Dyx74qj-351" value="" style="triangle;whiteSpace=wrap;html=1;rotation=0;" vertex="1" parent="pYFTRabutMhb-Dyx74qj-349">
          <mxGeometry x="10" y="4.680000000000007" width="10.62" height="10.63" as="geometry" />
        </mxCell>
        <mxCell id="pYFTRabutMhb-Dyx74qj-352" value="" style="rounded=0;whiteSpace=wrap;html=1;" vertex="1" parent="1">
          <mxGeometry x="1040" y="1020" width="240" height="220" as="geometry" />
        </mxCell>
        <mxCell id="pYFTRabutMhb-Dyx74qj-353" value="&lt;div&gt;&lt;font&gt;Менеджер устройств&lt;/font&gt;&lt;/div&gt;" style="text;html=1;align=left;verticalAlign=middle;whiteSpace=wrap;rounded=0;fontStyle=1" vertex="1" parent="1">
          <mxGeometry x="1070" y="920" width="210" height="20" as="geometry" />
        </mxCell>
        <mxCell id="pYFTRabutMhb-Dyx74qj-358" value="" style="rounded=0;whiteSpace=wrap;html=1;fontColor=light-dark(#1c531e, #ededed);" vertex="1" parent="1">
          <mxGeometry x="1040" y="960" width="240" height="20" as="geometry" />
        </mxCell>
        <mxCell id="pYFTRabutMhb-Dyx74qj-359" value="Управление локаторами" style="text;html=1;align=left;verticalAlign=middle;whiteSpace=wrap;rounded=0;" vertex="1" parent="1">
          <mxGeometry x="1070" y="960" width="210" height="20" as="geometry" />
        </mxCell>
        <mxCell id="pYFTRabutMhb-Dyx74qj-360" value="" style="group" vertex="1" connectable="0" parent="1">
          <mxGeometry x="1040" y="940" width="240" height="20" as="geometry" />
        </mxCell>
        <mxCell id="pYFTRabutMhb-Dyx74qj-361" value="" style="rounded=0;whiteSpace=wrap;html=1;align=center;" vertex="1" parent="pYFTRabutMhb-Dyx74qj-360">
          <mxGeometry width="240" height="20" as="geometry" />
        </mxCell>
        <mxCell id="pYFTRabutMhb-Dyx74qj-362" value="" style="triangle;whiteSpace=wrap;html=1;rotation=90;" vertex="1" parent="pYFTRabutMhb-Dyx74qj-360">
          <mxGeometry x="10" y="4.680000000000007" width="10.62" height="10.63" as="geometry" />
        </mxCell>
        <mxCell id="pYFTRabutMhb-Dyx74qj-363" value="&lt;font&gt;Менеджер локаторов&lt;/font&gt;" style="text;html=1;align=left;verticalAlign=middle;whiteSpace=wrap;rounded=0;fontStyle=1" vertex="1" parent="1">
          <mxGeometry x="1070" y="940" width="210" height="20" as="geometry" />
        </mxCell>
        <mxCell id="pYFTRabutMhb-Dyx74qj-364" value="" style="group" vertex="1" connectable="0" parent="1">
          <mxGeometry x="1040" y="980" width="240" height="20" as="geometry" />
        </mxCell>
        <mxCell id="pYFTRabutMhb-Dyx74qj-365" value="" style="rounded=0;whiteSpace=wrap;html=1;align=center;" vertex="1" parent="pYFTRabutMhb-Dyx74qj-364">
          <mxGeometry width="240" height="20" as="geometry" />
        </mxCell>
        <mxCell id="pYFTRabutMhb-Dyx74qj-366" value="" style="triangle;whiteSpace=wrap;html=1;rotation=0;" vertex="1" parent="pYFTRabutMhb-Dyx74qj-364">
          <mxGeometry x="10" y="4.680000000000007" width="10.62" height="10.63" as="geometry" />
        </mxCell>
        <mxCell id="pYFTRabutMhb-Dyx74qj-367" value="&lt;font&gt;Сигналы во временной области&lt;/font&gt;" style="text;html=1;align=left;verticalAlign=middle;whiteSpace=wrap;rounded=0;fontStyle=1" vertex="1" parent="1">
          <mxGeometry x="1070" y="980" width="210" height="20" as="geometry" />
        </mxCell>
        <mxCell id="pYFTRabutMhb-Dyx74qj-368" value="" style="group" vertex="1" connectable="0" parent="1">
          <mxGeometry x="1040" y="1000" width="240" height="20" as="geometry" />
        </mxCell>
        <mxCell id="pYFTRabutMhb-Dyx74qj-369" value="" style="rounded=0;whiteSpace=wrap;html=1;align=center;" vertex="1" parent="pYFTRabutMhb-Dyx74qj-368">
          <mxGeometry width="240" height="20" as="geometry" />
        </mxCell>
        <mxCell id="pYFTRabutMhb-Dyx74qj-370" value="" style="triangle;whiteSpace=wrap;html=1;rotation=0;" vertex="1" parent="pYFTRabutMhb-Dyx74qj-368">
          <mxGeometry x="10" y="4.680000000000007" width="10.62" height="10.63" as="geometry" />
        </mxCell>
        <mxCell id="pYFTRabutMhb-Dyx74qj-371" value="&lt;div&gt;&lt;font&gt;Сигналы в частотной области&lt;font&gt;&lt;br&gt;&lt;/font&gt;&lt;/font&gt;&lt;/div&gt;" style="text;html=1;align=left;verticalAlign=middle;whiteSpace=wrap;rounded=0;fontStyle=1" vertex="1" parent="1">
          <mxGeometry x="1070" y="1000" width="210" height="20" as="geometry" />
        </mxCell>
        <mxCell id="pYFTRabutMhb-Dyx74qj-373" value="" style="rounded=0;whiteSpace=wrap;html=1;fontColor=light-dark(#1c531e, #EDEDED);" vertex="1" parent="1">
          <mxGeometry x="1760" y="920" width="680" height="320" as="geometry" />
        </mxCell>
        <mxCell id="pYFTRabutMhb-Dyx74qj-374" value="" style="group" vertex="1" connectable="0" parent="1">
          <mxGeometry x="1760" y="920" width="240" height="20" as="geometry" />
        </mxCell>
        <mxCell id="pYFTRabutMhb-Dyx74qj-375" value="" style="rounded=0;whiteSpace=wrap;html=1;align=center;" vertex="1" parent="pYFTRabutMhb-Dyx74qj-374">
          <mxGeometry width="240" height="20" as="geometry" />
        </mxCell>
        <mxCell id="pYFTRabutMhb-Dyx74qj-376" value="" style="triangle;whiteSpace=wrap;html=1;rotation=0;" vertex="1" parent="pYFTRabutMhb-Dyx74qj-374">
          <mxGeometry x="10" y="4.680000000000007" width="10.62" height="10.63" as="geometry" />
        </mxCell>
        <mxCell id="pYFTRabutMhb-Dyx74qj-377" value="" style="rounded=0;whiteSpace=wrap;html=1;" vertex="1" parent="1">
          <mxGeometry x="1760" y="1020" width="240" height="220" as="geometry" />
        </mxCell>
        <mxCell id="pYFTRabutMhb-Dyx74qj-378" value="&lt;div&gt;&lt;font&gt;Менеджер устройств&lt;/font&gt;&lt;/div&gt;" style="text;html=1;align=left;verticalAlign=middle;whiteSpace=wrap;rounded=0;fontStyle=1" vertex="1" parent="1">
          <mxGeometry x="1790" y="920" width="210" height="20" as="geometry" />
        </mxCell>
        <mxCell id="pYFTRabutMhb-Dyx74qj-381" value="" style="group" vertex="1" connectable="0" parent="1">
          <mxGeometry x="1760" y="940" width="240" height="20" as="geometry" />
        </mxCell>
        <mxCell id="pYFTRabutMhb-Dyx74qj-382" value="" style="rounded=0;whiteSpace=wrap;html=1;align=center;" vertex="1" parent="pYFTRabutMhb-Dyx74qj-381">
          <mxGeometry width="240" height="20" as="geometry" />
        </mxCell>
        <mxCell id="pYFTRabutMhb-Dyx74qj-383" value="" style="triangle;whiteSpace=wrap;html=1;rotation=90;" vertex="1" parent="pYFTRabutMhb-Dyx74qj-381">
          <mxGeometry x="10" y="4.680000000000007" width="10.62" height="10.63" as="geometry" />
        </mxCell>
        <mxCell id="pYFTRabutMhb-Dyx74qj-384" value="&lt;font&gt;Менеджер локаторов&lt;/font&gt;" style="text;html=1;align=left;verticalAlign=middle;whiteSpace=wrap;rounded=0;fontStyle=1" vertex="1" parent="1">
          <mxGeometry x="1790" y="940" width="210" height="20" as="geometry" />
        </mxCell>
        <mxCell id="pYFTRabutMhb-Dyx74qj-385" value="" style="group" vertex="1" connectable="0" parent="1">
          <mxGeometry x="1760" y="980" width="240" height="20" as="geometry" />
        </mxCell>
        <mxCell id="pYFTRabutMhb-Dyx74qj-386" value="" style="rounded=0;whiteSpace=wrap;html=1;align=center;" vertex="1" parent="pYFTRabutMhb-Dyx74qj-385">
          <mxGeometry width="240" height="20" as="geometry" />
        </mxCell>
        <mxCell id="pYFTRabutMhb-Dyx74qj-387" value="" style="triangle;whiteSpace=wrap;html=1;rotation=0;" vertex="1" parent="pYFTRabutMhb-Dyx74qj-385">
          <mxGeometry x="10" y="4.680000000000007" width="10.62" height="10.63" as="geometry" />
        </mxCell>
        <mxCell id="pYFTRabutMhb-Dyx74qj-388" value="&lt;font&gt;Сигналы во временной области&lt;/font&gt;" style="text;html=1;align=left;verticalAlign=middle;whiteSpace=wrap;rounded=0;fontStyle=1" vertex="1" parent="1">
          <mxGeometry x="1790" y="980" width="210" height="20" as="geometry" />
        </mxCell>
        <mxCell id="pYFTRabutMhb-Dyx74qj-389" value="" style="group" vertex="1" connectable="0" parent="1">
          <mxGeometry x="1760" y="1000" width="240" height="20" as="geometry" />
        </mxCell>
        <mxCell id="pYFTRabutMhb-Dyx74qj-390" value="" style="rounded=0;whiteSpace=wrap;html=1;align=center;" vertex="1" parent="pYFTRabutMhb-Dyx74qj-389">
          <mxGeometry width="240" height="20" as="geometry" />
        </mxCell>
        <mxCell id="pYFTRabutMhb-Dyx74qj-391" value="" style="triangle;whiteSpace=wrap;html=1;rotation=0;" vertex="1" parent="pYFTRabutMhb-Dyx74qj-389">
          <mxGeometry x="10" y="4.680000000000007" width="10.62" height="10.63" as="geometry" />
        </mxCell>
        <mxCell id="pYFTRabutMhb-Dyx74qj-392" value="&lt;div&gt;&lt;font&gt;Сигналы в частотной области&lt;font&gt;&lt;br&gt;&lt;/font&gt;&lt;/font&gt;&lt;/div&gt;" style="text;html=1;align=left;verticalAlign=middle;whiteSpace=wrap;rounded=0;fontStyle=1" vertex="1" parent="1">
          <mxGeometry x="1790" y="1000" width="210" height="20" as="geometry" />
        </mxCell>
        <mxCell id="pYFTRabutMhb-Dyx74qj-393" value="" style="rounded=0;whiteSpace=wrap;html=1;fillColor=#008a00;strokeColor=#005700;fontColor=#ffffff;" vertex="1" parent="1">
          <mxGeometry x="2000" y="920" width="440" height="320" as="geometry" />
        </mxCell>
        <mxCell id="pYFTRabutMhb-Dyx74qj-395" value="" style="rounded=0;whiteSpace=wrap;html=1;fillColor=#008a00;strokeColor=#005700;fontColor=#ffffff;" vertex="1" parent="1">
          <mxGeometry x="1760" y="960" width="240" height="20" as="geometry" />
        </mxCell>
        <mxCell id="pYFTRabutMhb-Dyx74qj-380" value="&lt;span style=&quot;color: light-dark(rgb(255, 255, 255), rgb(237, 237, 237));&quot;&gt;Управление локаторами&lt;/span&gt;" style="text;html=1;align=left;verticalAlign=middle;whiteSpace=wrap;rounded=0;" vertex="1" parent="1">
          <mxGeometry x="1790" y="960" width="210" height="20" as="geometry" />
        </mxCell>
        <mxCell id="pYFTRabutMhb-Dyx74qj-396" value="" style="rounded=0;whiteSpace=wrap;html=1;" vertex="1" parent="1">
          <mxGeometry x="2010" y="940" width="420" height="290" as="geometry" />
        </mxCell>
        <mxCell id="pYFTRabutMhb-Dyx74qj-397" value="&lt;b&gt;&lt;span style=&quot;color: light-dark(rgb(255, 255, 255), rgb(237, 237, 237));&quot;&gt;Управление локаторами&lt;/span&gt;&lt;/b&gt;" style="text;html=1;align=left;verticalAlign=middle;whiteSpace=wrap;rounded=0;" vertex="1" parent="1">
          <mxGeometry x="2010" y="920" width="210" height="20" as="geometry" />
        </mxCell>
        <mxCell id="pYFTRabutMhb-Dyx74qj-400" value="" style="rounded=0;whiteSpace=wrap;html=1;strokeColor=light-dark(#77767b, #ededed);" vertex="1" parent="1">
          <mxGeometry x="2020" y="950" width="400" height="40" as="geometry" />
        </mxCell>
        <mxCell id="pYFTRabutMhb-Dyx74qj-401" value="&lt;font style=&quot;color: light-dark(rgb(46, 50, 145), rgb(237, 237, 237)); font-size: 8px;&quot;&gt;&lt;strong&gt;Список доступных локаторов&lt;br&gt;&lt;/strong&gt;&lt;/font&gt;" style="text;html=1;align=center;verticalAlign=middle;whiteSpace=wrap;rounded=0;" vertex="1" parent="1">
          <mxGeometry x="2020" y="950" width="130" height="15" as="geometry" />
        </mxCell>
        <mxCell id="pYFTRabutMhb-Dyx74qj-402" value="&lt;font style=&quot;color: light-dark(rgb(255, 255, 255), rgb(237, 237, 237)); font-size: 8px;&quot;&gt;Запустить излучение&lt;br&gt;&lt;/font&gt;" style="text;html=1;align=center;verticalAlign=middle;whiteSpace=wrap;rounded=0;" vertex="1" parent="1">
          <mxGeometry x="2030" y="990" width="120" height="20" as="geometry" />
        </mxCell>
        <mxCell id="pYFTRabutMhb-Dyx74qj-403" value="&lt;div style=&quot;line-height: 80%;&quot;&gt;&lt;div align=&quot;left&quot;&gt;&lt;font style=&quot;color: light-dark(rgb(46, 50, 145), rgb(237, 237, 237)); font-size: 8px; line-height: 80%;&quot;&gt;Выбрать локатор из списка:&lt;br&gt;&lt;/font&gt;&lt;/div&gt;&lt;/div&gt;" style="text;html=1;align=left;verticalAlign=middle;whiteSpace=wrap;rounded=0;" vertex="1" parent="1">
          <mxGeometry x="2030" y="965" width="110" height="20" as="geometry" />
        </mxCell>
        <mxCell id="pYFTRabutMhb-Dyx74qj-405" value="" style="rounded=1;whiteSpace=wrap;html=1;fillColor=#008a00;fontColor=light-dark(#1c531e, #121212);strokeColor=#005700;" vertex="1" parent="1">
          <mxGeometry x="2140" y="967.5" width="120" height="15" as="geometry" />
        </mxCell>
        <mxCell id="pYFTRabutMhb-Dyx74qj-406" value="" style="triangle;whiteSpace=wrap;html=1;rotation=90;fontColor=light-dark(#000000,#EDEDED);strokeColor=light-dark(#000000,#EDEDED);fillColor=light-dark(#77767b, #ededed);" vertex="1" parent="1">
          <mxGeometry x="2240" y="970" width="10" height="10" as="geometry" />
        </mxCell>
        <mxCell id="pYFTRabutMhb-Dyx74qj-407" value="&lt;font style=&quot;font-size: 8px;&quot;&gt;&lt;span style=&quot;color: rgb(255, 255, 255);&quot;&gt;ASMI-18X &lt;/span&gt;&lt;/font&gt;" style="text;html=1;align=center;verticalAlign=middle;whiteSpace=wrap;rounded=0;fontColor=light-dark(#e5a50a, #ededed);" vertex="1" parent="1">
          <mxGeometry x="2140" y="966.25" width="120" height="16.25" as="geometry" />
        </mxCell>
        <mxCell id="pYFTRabutMhb-Dyx74qj-408" value="" style="rounded=0;whiteSpace=wrap;html=1;strokeColor=light-dark(#77767b, #ededed);" vertex="1" parent="1">
          <mxGeometry x="2020" y="1000" width="400" height="70" as="geometry" />
        </mxCell>
        <mxCell id="pYFTRabutMhb-Dyx74qj-409" value="&lt;font style=&quot;color: light-dark(rgb(46, 50, 145), rgb(237, 237, 237)); font-size: 8px;&quot;&gt;&lt;strong&gt;Использование имеющихся конфигураций локаторов&lt;br&gt;&lt;/strong&gt;&lt;/font&gt;" style="text;html=1;align=center;verticalAlign=middle;whiteSpace=wrap;rounded=0;" vertex="1" parent="1">
          <mxGeometry x="2020" y="1000" width="230" height="15" as="geometry" />
        </mxCell>
        <mxCell id="pYFTRabutMhb-Dyx74qj-410" value="&lt;div style=&quot;line-height: 80%;&quot;&gt;&lt;div align=&quot;left&quot;&gt;&lt;font style=&quot;color: light-dark(rgb(46, 50, 145), rgb(237, 237, 237)); font-size: 8px; line-height: 80%;&quot;&gt;Выбрать локатор из списка:&lt;br&gt;&lt;/font&gt;&lt;/div&gt;&lt;/div&gt;" style="text;html=1;align=left;verticalAlign=middle;whiteSpace=wrap;rounded=0;" vertex="1" parent="1">
          <mxGeometry x="2060" y="1029.38" width="110" height="20" as="geometry" />
        </mxCell>
        <mxCell id="pYFTRabutMhb-Dyx74qj-412" value="&lt;font style=&quot;color: light-dark(rgb(46, 50, 145), rgb(237, 237, 237)); font-size: 8px;&quot;&gt;Загрузить конфигурацию локаторов:&lt;br&gt;&lt;/font&gt;" style="text;html=1;align=center;verticalAlign=middle;whiteSpace=wrap;rounded=0;" vertex="1" parent="1">
          <mxGeometry x="2030" y="1015" width="140" height="15" as="geometry" />
        </mxCell>
        <mxCell id="pYFTRabutMhb-Dyx74qj-413" value="" style="rounded=1;whiteSpace=wrap;html=1;fillColor=#008a00;fontColor=#ffffff;strokeColor=#005700;" vertex="1" parent="1">
          <mxGeometry x="2170" y="1015" width="40" height="15" as="geometry" />
        </mxCell>
        <mxCell id="pYFTRabutMhb-Dyx74qj-414" value="&lt;font style=&quot;color: light-dark(rgb(255, 255, 255), rgb(237, 237, 237)); font-size: 8px;&quot;&gt;Поиск&lt;br&gt;&lt;/font&gt;" style="text;html=1;align=center;verticalAlign=middle;whiteSpace=wrap;rounded=0;" vertex="1" parent="1">
          <mxGeometry x="2170" y="1012.5" width="40" height="17.5" as="geometry" />
        </mxCell>
        <mxCell id="pYFTRabutMhb-Dyx74qj-415" value="" style="rounded=1;whiteSpace=wrap;html=1;fillColor=#008a00;fontColor=light-dark(#1c531e, #121212);strokeColor=#005700;" vertex="1" parent="1">
          <mxGeometry x="2170" y="1033.13" width="120" height="15" as="geometry" />
        </mxCell>
        <mxCell id="pYFTRabutMhb-Dyx74qj-416" value="&lt;font style=&quot;font-size: 8px;&quot;&gt;&lt;span style=&quot;color: rgb(255, 255, 255);&quot;&gt;ASMI-18X &lt;/span&gt;&lt;/font&gt;" style="text;html=1;align=center;verticalAlign=middle;whiteSpace=wrap;rounded=0;fontColor=light-dark(#e5a50a, #ededed);" vertex="1" parent="1">
          <mxGeometry x="2170" y="1033.13" width="120" height="16.25" as="geometry" />
        </mxCell>
        <mxCell id="pYFTRabutMhb-Dyx74qj-417" value="" style="triangle;whiteSpace=wrap;html=1;rotation=90;fontColor=light-dark(#000000,#EDEDED);strokeColor=light-dark(#000000,#EDEDED);fillColor=light-dark(#77767b, #ededed);" vertex="1" parent="1">
          <mxGeometry x="2275" y="1035.63" width="10" height="10" as="geometry" />
        </mxCell>
        <mxCell id="pYFTRabutMhb-Dyx74qj-419" value="&lt;div align=&quot;right&quot; style=&quot;line-height: 80%;&quot;&gt;&lt;div&gt;&lt;font style=&quot;color: light-dark(rgb(46, 50, 145), rgb(237, 237, 237)); font-size: 8px; line-height: 80%;&quot;&gt;Рассчитать недостающие характеристики локатора:&lt;br&gt;&lt;/font&gt;&lt;/div&gt;&lt;/div&gt;" style="text;html=1;align=right;verticalAlign=middle;whiteSpace=wrap;rounded=0;" vertex="1" parent="1">
          <mxGeometry x="2020" y="1049.38" width="145" height="20" as="geometry" />
        </mxCell>
        <mxCell id="pYFTRabutMhb-Dyx74qj-424" value="" style="rounded=1;whiteSpace=wrap;html=1;fillColor=#008a00;fontColor=#ffffff;strokeColor=#005700;" vertex="1" parent="1">
          <mxGeometry x="2170" y="1051.88" width="20" height="15" as="geometry" />
        </mxCell>
        <mxCell id="pYFTRabutMhb-Dyx74qj-426" value="" style="rounded=0;whiteSpace=wrap;html=1;strokeColor=light-dark(#77767b, #ededed);" vertex="1" parent="1">
          <mxGeometry x="2020" y="1080" width="240" height="140" as="geometry" />
        </mxCell>
        <mxCell id="pYFTRabutMhb-Dyx74qj-427" value="&lt;font style=&quot;color: light-dark(rgb(46, 50, 145), rgb(237, 237, 237)); font-size: 8px;&quot;&gt;&lt;strong&gt;Характеристики выбранного локатора&lt;br&gt;&lt;/strong&gt;&lt;/font&gt;" style="text;html=1;align=center;verticalAlign=middle;whiteSpace=wrap;rounded=0;" vertex="1" parent="1">
          <mxGeometry x="2020" y="1080" width="170" height="15" as="geometry" />
        </mxCell>
        <mxCell id="pYFTRabutMhb-Dyx74qj-428" value="" style="rounded=0;whiteSpace=wrap;html=1;strokeColor=light-dark(#77767b, #ededed);" vertex="1" parent="1">
          <mxGeometry x="2270" y="1080" width="150" height="110" as="geometry" />
        </mxCell>
        <mxCell id="pYFTRabutMhb-Dyx74qj-429" value="&lt;font style=&quot;color: light-dark(rgb(46, 50, 145), rgb(237, 237, 237)); font-size: 8px;&quot;&gt;&lt;strong&gt;Управление&lt;br&gt;&lt;/strong&gt;&lt;/font&gt;" style="text;html=1;align=center;verticalAlign=middle;whiteSpace=wrap;rounded=0;" vertex="1" parent="1">
          <mxGeometry x="2270" y="1080" width="60" height="15" as="geometry" />
        </mxCell>
        <mxCell id="pYFTRabutMhb-Dyx74qj-430" value="&lt;div align=&quot;left&quot; style=&quot;line-height: 80%;&quot;&gt;&lt;font style=&quot;color: light-dark(rgb(46, 50, 145), rgb(237, 237, 237)); font-size: 8px; line-height: 80%;&quot;&gt;Добавить текущий локатора в общий список локаторов:&lt;/font&gt;&lt;/div&gt;" style="text;html=1;align=left;verticalAlign=middle;whiteSpace=wrap;rounded=0;" vertex="1" parent="1">
          <mxGeometry x="2280" y="1095" width="130" height="25" as="geometry" />
        </mxCell>
        <mxCell id="pYFTRabutMhb-Dyx74qj-432" value="" style="rounded=1;whiteSpace=wrap;html=1;fillColor=#008a00;fontColor=#ffffff;strokeColor=#005700;" vertex="1" parent="1">
          <mxGeometry x="2280" y="1122.5" width="100" height="15" as="geometry" />
        </mxCell>
        <mxCell id="pYFTRabutMhb-Dyx74qj-433" value="&lt;font style=&quot;color: light-dark(rgb(255, 255, 255), rgb(237, 237, 237)); font-size: 8px;&quot;&gt;Добавить&lt;br&gt;&lt;/font&gt;" style="text;html=1;align=center;verticalAlign=middle;whiteSpace=wrap;rounded=0;" vertex="1" parent="1">
          <mxGeometry x="2280" y="1120" width="80" height="17.5" as="geometry" />
        </mxCell>
        <mxCell id="pYFTRabutMhb-Dyx74qj-441" value="&lt;div align=&quot;left&quot; style=&quot;line-height: 80%;&quot;&gt;&lt;font style=&quot;color: light-dark(rgb(46, 50, 145), rgb(237, 237, 237)); font-size: 8px; line-height: 80%;&quot;&gt;Удалить текущий локатор из общего списка локаторов:&lt;/font&gt;&lt;/div&gt;" style="text;html=1;align=left;verticalAlign=middle;whiteSpace=wrap;rounded=0;" vertex="1" parent="1">
          <mxGeometry x="2280" y="1140" width="130" height="25" as="geometry" />
        </mxCell>
        <mxCell id="pYFTRabutMhb-Dyx74qj-442" value="" style="rounded=1;whiteSpace=wrap;html=1;fillColor=#008a00;fontColor=#ffffff;strokeColor=#005700;" vertex="1" parent="1">
          <mxGeometry x="2280" y="1167.5" width="100" height="15" as="geometry" />
        </mxCell>
        <mxCell id="pYFTRabutMhb-Dyx74qj-443" value="&lt;font style=&quot;color: light-dark(rgb(255, 255, 255), rgb(237, 237, 237)); font-size: 8px;&quot;&gt;Удалить&lt;br&gt;&lt;/font&gt;" style="text;html=1;align=center;verticalAlign=middle;whiteSpace=wrap;rounded=0;" vertex="1" parent="1">
          <mxGeometry x="2280" y="1165" width="100" height="17.5" as="geometry" />
        </mxCell>
        <mxCell id="pYFTRabutMhb-Dyx74qj-456" value="&lt;div style=&quot;line-height: 80%;&quot;&gt;&lt;div&gt;&lt;font style=&quot;color: light-dark(rgb(46, 50, 145), rgb(237, 237, 237)); font-size: 8px; line-height: 80%;&quot;&gt;Название локатора:&lt;br&gt;&lt;/font&gt;&lt;/div&gt;&lt;/div&gt;" style="text;html=1;align=left;verticalAlign=middle;whiteSpace=wrap;rounded=0;" vertex="1" parent="1">
          <mxGeometry x="2020" y="1094.99" width="147.5" height="20" as="geometry" />
        </mxCell>
        <mxCell id="pYFTRabutMhb-Dyx74qj-458" value="&lt;font style=&quot;font-size: 8px; color: light-dark(rgb(119, 118, 123), rgb(237, 237, 237));&quot;&gt;хххххххх&lt;/font&gt;" style="rounded=1;whiteSpace=wrap;html=1;strokeColor=light-dark(#3d3846, #ededed);" vertex="1" parent="1">
          <mxGeometry x="2170" y="1098.1200000000001" width="80" height="13.75" as="geometry" />
        </mxCell>
        <mxCell id="pYFTRabutMhb-Dyx74qj-462" value="&lt;font style=&quot;font-size: 8px; color: light-dark(rgb(119, 118, 123), rgb(237, 237, 237));&quot;&gt;хххххххх&lt;/font&gt;" style="rounded=1;whiteSpace=wrap;html=1;strokeColor=light-dark(#3d3846, #ededed);" vertex="1" parent="1">
          <mxGeometry x="2170" y="1114.99" width="80" height="13.75" as="geometry" />
        </mxCell>
        <mxCell id="pYFTRabutMhb-Dyx74qj-463" value="&lt;div style=&quot;line-height: 80%;&quot;&gt;&lt;div&gt;&lt;font style=&quot;color: light-dark(rgb(46, 50, 145), rgb(237, 237, 237)); font-size: 8px; line-height: 80%;&quot;&gt;Тип сигнала:&lt;br&gt;&lt;/font&gt;&lt;/div&gt;&lt;/div&gt;" style="text;html=1;align=left;verticalAlign=middle;whiteSpace=wrap;rounded=0;" vertex="1" parent="1">
          <mxGeometry x="2020" y="1108.74" width="147.5" height="20" as="geometry" />
        </mxCell>
        <mxCell id="pYFTRabutMhb-Dyx74qj-464" value="&lt;font style=&quot;font-size: 8px; color: light-dark(rgb(119, 118, 123), rgb(237, 237, 237));&quot;&gt;хххххххх&lt;/font&gt;" style="rounded=1;whiteSpace=wrap;html=1;strokeColor=light-dark(#3d3846, #ededed);" vertex="1" parent="1">
          <mxGeometry x="2170" y="1131.25" width="80" height="13.75" as="geometry" />
        </mxCell>
        <mxCell id="pYFTRabutMhb-Dyx74qj-465" value="&lt;div style=&quot;line-height: 80%;&quot;&gt;&lt;div&gt;&lt;font style=&quot;color: light-dark(rgb(46, 50, 145), rgb(237, 237, 237)); font-size: 8px; line-height: 80%;&quot;&gt;Рабочий диапазон частот, Гц:&lt;br&gt;&lt;/font&gt;&lt;/div&gt;&lt;/div&gt;" style="text;html=1;align=left;verticalAlign=middle;whiteSpace=wrap;rounded=0;" vertex="1" parent="1">
          <mxGeometry x="2020" y="1125" width="147.5" height="20" as="geometry" />
        </mxCell>
        <mxCell id="pYFTRabutMhb-Dyx74qj-469" value="&lt;font style=&quot;font-size: 8px; color: light-dark(rgb(119, 118, 123), rgb(237, 237, 237));&quot;&gt;хххххххх&lt;/font&gt;" style="rounded=1;whiteSpace=wrap;html=1;strokeColor=light-dark(#3d3846, #ededed);" vertex="1" parent="1">
          <mxGeometry x="2170" y="1148.75" width="80" height="13.75" as="geometry" />
        </mxCell>
        <mxCell id="pYFTRabutMhb-Dyx74qj-470" value="&lt;div style=&quot;line-height: 80%;&quot;&gt;&lt;div&gt;&lt;font style=&quot;color: light-dark(rgb(46, 50, 145), rgb(237, 237, 237)); font-size: 8px; line-height: 80%;&quot;&gt;Период повторения импульсов, мкс:&lt;br&gt;&lt;/font&gt;&lt;/div&gt;&lt;/div&gt;" style="text;html=1;align=left;verticalAlign=middle;whiteSpace=wrap;rounded=0;" vertex="1" parent="1">
          <mxGeometry x="2020" y="1142.5" width="147.5" height="20" as="geometry" />
        </mxCell>
        <mxCell id="pYFTRabutMhb-Dyx74qj-471" value="&lt;font style=&quot;font-size: 8px; color: light-dark(rgb(119, 118, 123), rgb(237, 237, 237));&quot;&gt;хххххххх&lt;/font&gt;" style="rounded=1;whiteSpace=wrap;html=1;strokeColor=light-dark(#3d3846, #ededed);" vertex="1" parent="1">
          <mxGeometry x="2170" y="1166.25" width="80" height="13.75" as="geometry" />
        </mxCell>
        <mxCell id="pYFTRabutMhb-Dyx74qj-472" value="&lt;div style=&quot;line-height: 80%;&quot;&gt;&lt;div&gt;&lt;font style=&quot;color: light-dark(rgb(46, 50, 145), rgb(237, 237, 237)); font-size: 8px; line-height: 80%;&quot;&gt;Частота повторения импульсов, Гц:&lt;br&gt;&lt;/font&gt;&lt;/div&gt;&lt;/div&gt;" style="text;html=1;align=left;verticalAlign=middle;whiteSpace=wrap;rounded=0;" vertex="1" parent="1">
          <mxGeometry x="2020" y="1160" width="147.5" height="20" as="geometry" />
        </mxCell>
        <mxCell id="pYFTRabutMhb-Dyx74qj-473" value="&lt;font style=&quot;font-size: 8px; color: light-dark(rgb(119, 118, 123), rgb(237, 237, 237));&quot;&gt;хххххххх&lt;/font&gt;" style="rounded=1;whiteSpace=wrap;html=1;strokeColor=light-dark(#3d3846, #ededed);" vertex="1" parent="1">
          <mxGeometry x="2170" y="1183.13" width="80" height="13.75" as="geometry" />
        </mxCell>
        <mxCell id="pYFTRabutMhb-Dyx74qj-474" value="&lt;div style=&quot;line-height: 80%;&quot;&gt;&lt;div&gt;&lt;font style=&quot;color: light-dark(rgb(46, 50, 145), rgb(237, 237, 237)); font-size: 8px; line-height: 80%;&quot;&gt;Длительность импульса, мкс:&lt;br&gt;&lt;/font&gt;&lt;/div&gt;&lt;/div&gt;" style="text;html=1;align=left;verticalAlign=middle;whiteSpace=wrap;rounded=0;" vertex="1" parent="1">
          <mxGeometry x="2020" y="1180.0100000000002" width="147.5" height="20" as="geometry" />
        </mxCell>
        <mxCell id="pYFTRabutMhb-Dyx74qj-476" value="" style="rounded=0;whiteSpace=wrap;html=1;fontColor=light-dark(#009900,#EDEDED);" vertex="1" parent="1">
          <mxGeometry x="1040" y="1280" width="680" height="320" as="geometry" />
        </mxCell>
        <mxCell id="pYFTRabutMhb-Dyx74qj-477" value="" style="group" vertex="1" connectable="0" parent="1">
          <mxGeometry x="1040" y="1280" width="240" height="20" as="geometry" />
        </mxCell>
        <mxCell id="pYFTRabutMhb-Dyx74qj-478" value="" style="rounded=0;whiteSpace=wrap;html=1;align=center;" vertex="1" parent="pYFTRabutMhb-Dyx74qj-477">
          <mxGeometry width="240" height="20" as="geometry" />
        </mxCell>
        <mxCell id="pYFTRabutMhb-Dyx74qj-479" value="" style="triangle;whiteSpace=wrap;html=1;rotation=0;" vertex="1" parent="pYFTRabutMhb-Dyx74qj-477">
          <mxGeometry x="10" y="4.680000000000007" width="10.62" height="10.63" as="geometry" />
        </mxCell>
        <mxCell id="pYFTRabutMhb-Dyx74qj-480" value="" style="rounded=0;whiteSpace=wrap;html=1;" vertex="1" parent="1">
          <mxGeometry x="1040" y="1400" width="240" height="200" as="geometry" />
        </mxCell>
        <mxCell id="pYFTRabutMhb-Dyx74qj-481" value="&lt;div&gt;&lt;font&gt;Менеджер устройств&lt;/font&gt;&lt;/div&gt;" style="text;html=1;align=left;verticalAlign=middle;whiteSpace=wrap;rounded=0;fontStyle=1" vertex="1" parent="1">
          <mxGeometry x="1070" y="1280" width="210" height="20" as="geometry" />
        </mxCell>
        <mxCell id="pYFTRabutMhb-Dyx74qj-482" value="&amp;nbsp;" style="rounded=0;whiteSpace=wrap;html=1;fontColor=light-dark(#1c531e, #ededed);" vertex="1" parent="1">
          <mxGeometry x="1040" y="1339.69" width="240" height="20" as="geometry" />
        </mxCell>
        <mxCell id="pYFTRabutMhb-Dyx74qj-483" value="Излучаемый сигнал" style="text;html=1;align=left;verticalAlign=middle;whiteSpace=wrap;rounded=0;" vertex="1" parent="1">
          <mxGeometry x="1070" y="1340.31" width="210" height="20" as="geometry" />
        </mxCell>
        <mxCell id="pYFTRabutMhb-Dyx74qj-484" value="" style="group" vertex="1" connectable="0" parent="1">
          <mxGeometry x="1040" y="1300" width="240" height="20" as="geometry" />
        </mxCell>
        <mxCell id="pYFTRabutMhb-Dyx74qj-485" value="" style="rounded=0;whiteSpace=wrap;html=1;align=center;" vertex="1" parent="pYFTRabutMhb-Dyx74qj-484">
          <mxGeometry width="240" height="20" as="geometry" />
        </mxCell>
        <mxCell id="pYFTRabutMhb-Dyx74qj-486" value="" style="triangle;whiteSpace=wrap;html=1;rotation=0;" vertex="1" parent="pYFTRabutMhb-Dyx74qj-484">
          <mxGeometry x="10" y="4.680000000000007" width="10.62" height="10.63" as="geometry" />
        </mxCell>
        <mxCell id="pYFTRabutMhb-Dyx74qj-487" value="&lt;font&gt;Менеджер локаторов&lt;/font&gt;" style="text;html=1;align=left;verticalAlign=middle;whiteSpace=wrap;rounded=0;fontStyle=1" vertex="1" parent="1">
          <mxGeometry x="1070" y="1300" width="210" height="20" as="geometry" />
        </mxCell>
        <mxCell id="pYFTRabutMhb-Dyx74qj-488" value="" style="group" vertex="1" connectable="0" parent="1">
          <mxGeometry x="1040" y="1320" width="240" height="20" as="geometry" />
        </mxCell>
        <mxCell id="pYFTRabutMhb-Dyx74qj-489" value="" style="rounded=0;whiteSpace=wrap;html=1;align=center;" vertex="1" parent="pYFTRabutMhb-Dyx74qj-488">
          <mxGeometry width="240" height="20" as="geometry" />
        </mxCell>
        <mxCell id="pYFTRabutMhb-Dyx74qj-490" value="" style="triangle;whiteSpace=wrap;html=1;rotation=90;" vertex="1" parent="pYFTRabutMhb-Dyx74qj-488">
          <mxGeometry x="10" y="4.680000000000007" width="10.62" height="10.63" as="geometry" />
        </mxCell>
        <mxCell id="pYFTRabutMhb-Dyx74qj-491" value="&lt;font&gt;Сигналы во временной области&lt;/font&gt;" style="text;html=1;align=left;verticalAlign=middle;whiteSpace=wrap;rounded=0;fontStyle=1" vertex="1" parent="1">
          <mxGeometry x="1070" y="1320" width="210" height="20" as="geometry" />
        </mxCell>
        <mxCell id="pYFTRabutMhb-Dyx74qj-492" value="" style="group" vertex="1" connectable="0" parent="1">
          <mxGeometry x="1040" y="1380.93" width="240" height="20" as="geometry" />
        </mxCell>
        <mxCell id="pYFTRabutMhb-Dyx74qj-493" value="" style="rounded=0;whiteSpace=wrap;html=1;align=center;" vertex="1" parent="pYFTRabutMhb-Dyx74qj-492">
          <mxGeometry width="240" height="20" as="geometry" />
        </mxCell>
        <mxCell id="pYFTRabutMhb-Dyx74qj-494" value="" style="triangle;whiteSpace=wrap;html=1;rotation=0;" vertex="1" parent="pYFTRabutMhb-Dyx74qj-492">
          <mxGeometry x="10" y="4.680000000000007" width="10.62" height="10.63" as="geometry" />
        </mxCell>
        <mxCell id="pYFTRabutMhb-Dyx74qj-495" value="&lt;div&gt;&lt;font&gt;Сигналы в частотной области&lt;font&gt;&lt;br&gt;&lt;/font&gt;&lt;/font&gt;&lt;/div&gt;" style="text;html=1;align=left;verticalAlign=middle;whiteSpace=wrap;rounded=0;fontStyle=1" vertex="1" parent="pYFTRabutMhb-Dyx74qj-492">
          <mxGeometry x="30" width="210" height="20" as="geometry" />
        </mxCell>
        <mxCell id="pYFTRabutMhb-Dyx74qj-573" value="&amp;nbsp;" style="rounded=0;whiteSpace=wrap;html=1;fontColor=light-dark(#1c531e, #ededed);" vertex="1" parent="1">
          <mxGeometry x="1040" y="1360.31" width="240" height="20" as="geometry" />
        </mxCell>
        <mxCell id="pYFTRabutMhb-Dyx74qj-574" value="Теоритический излучаемый сигнал" style="text;html=1;align=left;verticalAlign=middle;whiteSpace=wrap;rounded=0;" vertex="1" parent="1">
          <mxGeometry x="1070" y="1360.9299999999998" width="210" height="20" as="geometry" />
        </mxCell>
        <mxCell id="pYFTRabutMhb-Dyx74qj-577" value="&lt;div style=&quot;line-height: 80%;&quot;&gt;&lt;div&gt;&lt;font style=&quot;color: light-dark(rgb(46, 50, 145), rgb(237, 237, 237)); font-size: 8px; line-height: 80%;&quot;&gt;Количество импульсов, шт:&lt;br&gt;&lt;/font&gt;&lt;/div&gt;&lt;/div&gt;" style="text;html=1;align=left;verticalAlign=middle;whiteSpace=wrap;rounded=0;" vertex="1" parent="1">
          <mxGeometry x="2020" y="1196.88" width="147.5" height="20" as="geometry" />
        </mxCell>
        <mxCell id="pYFTRabutMhb-Dyx74qj-578" value="&lt;font style=&quot;font-size: 8px; color: light-dark(rgb(119, 118, 123), rgb(237, 237, 237));&quot;&gt;хххххххх&lt;/font&gt;" style="rounded=1;whiteSpace=wrap;html=1;strokeColor=light-dark(#3d3846, #ededed);" vertex="1" parent="1">
          <mxGeometry x="2170" y="1200.0100000000002" width="80" height="13.75" as="geometry" />
        </mxCell>
        <mxCell id="pYFTRabutMhb-Dyx74qj-580" value="" style="rounded=0;whiteSpace=wrap;html=1;fontColor=light-dark(#009900,#EDEDED);fillColor=#009900;" vertex="1" parent="1">
          <mxGeometry x="1760" y="1280" width="680" height="320" as="geometry" />
        </mxCell>
        <mxCell id="pYFTRabutMhb-Dyx74qj-581" value="" style="group" vertex="1" connectable="0" parent="1">
          <mxGeometry x="1760" y="1280" width="240" height="20" as="geometry" />
        </mxCell>
        <mxCell id="pYFTRabutMhb-Dyx74qj-582" value="" style="rounded=0;whiteSpace=wrap;html=1;align=center;" vertex="1" parent="pYFTRabutMhb-Dyx74qj-581">
          <mxGeometry width="240" height="20" as="geometry" />
        </mxCell>
        <mxCell id="pYFTRabutMhb-Dyx74qj-583" value="" style="triangle;whiteSpace=wrap;html=1;rotation=0;" vertex="1" parent="pYFTRabutMhb-Dyx74qj-581">
          <mxGeometry x="10" y="4.680000000000007" width="10.62" height="10.63" as="geometry" />
        </mxCell>
        <mxCell id="pYFTRabutMhb-Dyx74qj-584" value="" style="rounded=0;whiteSpace=wrap;html=1;" vertex="1" parent="1">
          <mxGeometry x="1760" y="1400" width="240" height="200" as="geometry" />
        </mxCell>
        <mxCell id="pYFTRabutMhb-Dyx74qj-585" value="&lt;div&gt;&lt;font&gt;Менеджер устройств&lt;/font&gt;&lt;/div&gt;" style="text;html=1;align=left;verticalAlign=middle;whiteSpace=wrap;rounded=0;fontStyle=1" vertex="1" parent="1">
          <mxGeometry x="1790" y="1280" width="210" height="20" as="geometry" />
        </mxCell>
        <mxCell id="pYFTRabutMhb-Dyx74qj-587" value="&lt;span style=&quot;color: light-dark(rgb(255, 255, 255), rgb(237, 237, 237));&quot;&gt;Излучаемый сигнал&lt;/span&gt;" style="text;html=1;align=left;verticalAlign=middle;whiteSpace=wrap;rounded=0;fillColor=none;" vertex="1" parent="1">
          <mxGeometry x="1790" y="1339.69" width="210" height="20" as="geometry" />
        </mxCell>
        <mxCell id="pYFTRabutMhb-Dyx74qj-588" value="" style="group" vertex="1" connectable="0" parent="1">
          <mxGeometry x="1760" y="1300" width="240" height="20" as="geometry" />
        </mxCell>
        <mxCell id="pYFTRabutMhb-Dyx74qj-589" value="" style="rounded=0;whiteSpace=wrap;html=1;align=center;" vertex="1" parent="pYFTRabutMhb-Dyx74qj-588">
          <mxGeometry width="240" height="20" as="geometry" />
        </mxCell>
        <mxCell id="pYFTRabutMhb-Dyx74qj-590" value="" style="triangle;whiteSpace=wrap;html=1;rotation=0;" vertex="1" parent="pYFTRabutMhb-Dyx74qj-588">
          <mxGeometry x="10" y="4.680000000000007" width="10.62" height="10.63" as="geometry" />
        </mxCell>
        <mxCell id="pYFTRabutMhb-Dyx74qj-591" value="&lt;font&gt;Менеджер локаторов&lt;/font&gt;" style="text;html=1;align=left;verticalAlign=middle;whiteSpace=wrap;rounded=0;fontStyle=1" vertex="1" parent="1">
          <mxGeometry x="1790" y="1300" width="210" height="20" as="geometry" />
        </mxCell>
        <mxCell id="pYFTRabutMhb-Dyx74qj-592" value="" style="group" vertex="1" connectable="0" parent="1">
          <mxGeometry x="1760" y="1320" width="240" height="20" as="geometry" />
        </mxCell>
        <mxCell id="pYFTRabutMhb-Dyx74qj-593" value="" style="rounded=0;whiteSpace=wrap;html=1;align=center;" vertex="1" parent="pYFTRabutMhb-Dyx74qj-592">
          <mxGeometry width="240" height="20" as="geometry" />
        </mxCell>
        <mxCell id="pYFTRabutMhb-Dyx74qj-594" value="" style="triangle;whiteSpace=wrap;html=1;rotation=90;" vertex="1" parent="pYFTRabutMhb-Dyx74qj-592">
          <mxGeometry x="10" y="4.680000000000007" width="10.62" height="10.63" as="geometry" />
        </mxCell>
        <mxCell id="pYFTRabutMhb-Dyx74qj-595" value="&lt;font&gt;Сигналы во временной области&lt;/font&gt;" style="text;html=1;align=left;verticalAlign=middle;whiteSpace=wrap;rounded=0;fontStyle=1" vertex="1" parent="1">
          <mxGeometry x="1790" y="1320" width="210" height="20" as="geometry" />
        </mxCell>
        <mxCell id="pYFTRabutMhb-Dyx74qj-596" value="" style="group" vertex="1" connectable="0" parent="1">
          <mxGeometry x="1760" y="1380.93" width="240" height="20" as="geometry" />
        </mxCell>
        <mxCell id="pYFTRabutMhb-Dyx74qj-597" value="" style="rounded=0;whiteSpace=wrap;html=1;align=center;" vertex="1" parent="pYFTRabutMhb-Dyx74qj-596">
          <mxGeometry width="240" height="20" as="geometry" />
        </mxCell>
        <mxCell id="pYFTRabutMhb-Dyx74qj-598" value="" style="triangle;whiteSpace=wrap;html=1;rotation=0;" vertex="1" parent="pYFTRabutMhb-Dyx74qj-596">
          <mxGeometry x="10" y="4.680000000000007" width="10.62" height="10.63" as="geometry" />
        </mxCell>
        <mxCell id="pYFTRabutMhb-Dyx74qj-599" value="&lt;div&gt;&lt;font&gt;Сигналы в частотной области&lt;font&gt;&lt;br&gt;&lt;/font&gt;&lt;/font&gt;&lt;/div&gt;" style="text;html=1;align=left;verticalAlign=middle;whiteSpace=wrap;rounded=0;fontStyle=1" vertex="1" parent="pYFTRabutMhb-Dyx74qj-596">
          <mxGeometry x="30" width="210" height="20" as="geometry" />
        </mxCell>
        <mxCell id="pYFTRabutMhb-Dyx74qj-600" value="&amp;nbsp;" style="rounded=0;whiteSpace=wrap;html=1;fontColor=light-dark(#1c531e, #ededed);" vertex="1" parent="1">
          <mxGeometry x="1760" y="1360.31" width="240" height="20" as="geometry" />
        </mxCell>
        <mxCell id="pYFTRabutMhb-Dyx74qj-601" value="Теоритический излучаемый сигнал" style="text;html=1;align=left;verticalAlign=middle;whiteSpace=wrap;rounded=0;" vertex="1" parent="1">
          <mxGeometry x="1790" y="1360.9299999999998" width="210" height="20" as="geometry" />
        </mxCell>
        <mxCell id="pYFTRabutMhb-Dyx74qj-602" value="" style="rounded=0;whiteSpace=wrap;html=1;" vertex="1" parent="1">
          <mxGeometry x="2010" y="1300" width="420" height="290" as="geometry" />
        </mxCell>
        <mxCell id="pYFTRabutMhb-Dyx74qj-603" value="&lt;b&gt;&lt;span style=&quot;color: light-dark(rgb(255, 255, 255), rgb(237, 237, 237));&quot;&gt;Излучаемый сигнал&lt;/span&gt;&lt;/b&gt;" style="text;html=1;align=left;verticalAlign=middle;whiteSpace=wrap;rounded=0;fillColor=none;" vertex="1" parent="1">
          <mxGeometry x="2010" y="1280" width="210" height="20" as="geometry" />
        </mxCell>
        <mxCell id="pYFTRabutMhb-Dyx74qj-604" value="" style="rounded=0;whiteSpace=wrap;html=1;strokeColor=light-dark(#77767b, #ededed);" vertex="1" parent="1">
          <mxGeometry x="2020" y="1305" width="150" height="215" as="geometry" />
        </mxCell>
        <mxCell id="pYFTRabutMhb-Dyx74qj-605" value="&lt;font style=&quot;color: light-dark(rgb(46, 50, 145), rgb(237, 237, 237)); font-size: 8px;&quot;&gt;&lt;strong&gt;Управление курсорами&lt;br&gt;&lt;/strong&gt;&lt;/font&gt;" style="text;html=1;align=center;verticalAlign=middle;whiteSpace=wrap;rounded=0;" vertex="1" parent="1">
          <mxGeometry x="2020" y="1305" width="110" height="15" as="geometry" />
        </mxCell>
        <mxCell id="pYFTRabutMhb-Dyx74qj-607" value="" style="rounded=1;whiteSpace=wrap;html=1;fillColor=#008a00;fontColor=#ffffff;strokeColor=#005700;" vertex="1" parent="1">
          <mxGeometry x="2025" y="1323.75" width="135" height="15" as="geometry" />
        </mxCell>
        <mxCell id="pYFTRabutMhb-Dyx74qj-608" value="&lt;font style=&quot;color: light-dark(rgb(255, 255, 255), rgb(237, 237, 237)); font-size: 8px;&quot;&gt;Добавить вертикальные курсоры&lt;br&gt;&lt;/font&gt;" style="text;html=1;align=center;verticalAlign=middle;whiteSpace=wrap;rounded=0;" vertex="1" parent="1">
          <mxGeometry x="2025" y="1321.25" width="135" height="17.5" as="geometry" />
        </mxCell>
        <mxCell id="pYFTRabutMhb-Dyx74qj-611" value="" style="rounded=1;whiteSpace=wrap;html=1;fillColor=#008a00;fontColor=#ffffff;strokeColor=#005700;" vertex="1" parent="1">
          <mxGeometry x="2025" y="1342.5" width="135" height="15" as="geometry" />
        </mxCell>
        <mxCell id="pYFTRabutMhb-Dyx74qj-612" value="&lt;font style=&quot;color: light-dark(rgb(255, 255, 255), rgb(237, 237, 237)); font-size: 8px;&quot;&gt;Очистить вертикальные курсоры&lt;br&gt;&lt;/font&gt;" style="text;html=1;align=center;verticalAlign=middle;whiteSpace=wrap;rounded=0;" vertex="1" parent="1">
          <mxGeometry x="2026.25" y="1340.31" width="133.75" height="17.5" as="geometry" />
        </mxCell>
        <mxCell id="pYFTRabutMhb-Dyx74qj-617" value="&lt;div style=&quot;line-height: 80%;&quot;&gt;&lt;div&gt;&lt;font style=&quot;color: light-dark(rgb(46, 50, 145), rgb(237, 237, 237)); font-size: 8px; line-height: 80%;&quot;&gt;Курсор 1 по оси X:&lt;br&gt;&lt;/font&gt;&lt;/div&gt;&lt;/div&gt;" style="text;html=1;align=left;verticalAlign=middle;whiteSpace=wrap;rounded=0;" vertex="1" parent="1">
          <mxGeometry x="2025" y="1360.93" width="80" height="20" as="geometry" />
        </mxCell>
        <mxCell id="pYFTRabutMhb-Dyx74qj-618" value="&lt;font style=&quot;font-size: 8px; color: light-dark(rgb(119, 118, 123), rgb(237, 237, 237));&quot;&gt;хххххххх&lt;/font&gt;" style="rounded=1;whiteSpace=wrap;html=1;strokeColor=light-dark(#3d3846, #ededed);" vertex="1" parent="1">
          <mxGeometry x="2110" y="1364.06" width="50" height="13.75" as="geometry" />
        </mxCell>
        <mxCell id="pYFTRabutMhb-Dyx74qj-619" value="&lt;div style=&quot;line-height: 80%;&quot;&gt;&lt;div&gt;&lt;font style=&quot;color: light-dark(rgb(46, 50, 145), rgb(237, 237, 237)); font-size: 8px; line-height: 80%;&quot;&gt;Курсор 2 по оси X:&lt;br&gt;&lt;/font&gt;&lt;/div&gt;&lt;/div&gt;" style="text;html=1;align=left;verticalAlign=middle;whiteSpace=wrap;rounded=0;" vertex="1" parent="1">
          <mxGeometry x="2025" y="1377.8100000000002" width="80" height="20" as="geometry" />
        </mxCell>
        <mxCell id="pYFTRabutMhb-Dyx74qj-620" value="&lt;font style=&quot;font-size: 8px; color: light-dark(rgb(119, 118, 123), rgb(237, 237, 237));&quot;&gt;хххххххх&lt;/font&gt;" style="rounded=1;whiteSpace=wrap;html=1;strokeColor=light-dark(#3d3846, #ededed);" vertex="1" parent="1">
          <mxGeometry x="2110" y="1380.94" width="50" height="13.75" as="geometry" />
        </mxCell>
        <mxCell id="pYFTRabutMhb-Dyx74qj-621" value="&lt;div align=&quot;right&quot; style=&quot;line-height: 80%;&quot;&gt;&lt;div&gt;&lt;font style=&quot;color: light-dark(rgb(46, 50, 145), rgb(237, 237, 237)); font-size: 8px; line-height: 80%;&quot;&gt;Дельта X:&lt;br&gt;&lt;/font&gt;&lt;/div&gt;&lt;/div&gt;" style="text;html=1;align=left;verticalAlign=middle;whiteSpace=wrap;rounded=0;" vertex="1" parent="1">
          <mxGeometry x="2057.5" y="1394.69" width="45" height="20" as="geometry" />
        </mxCell>
        <mxCell id="pYFTRabutMhb-Dyx74qj-622" value="&lt;font style=&quot;font-size: 8px; color: light-dark(rgb(119, 118, 123), rgb(237, 237, 237));&quot;&gt;хххххххх&lt;/font&gt;" style="rounded=1;whiteSpace=wrap;html=1;strokeColor=light-dark(#3d3846, #ededed);" vertex="1" parent="1">
          <mxGeometry x="2110" y="1397.8200000000002" width="50" height="13.75" as="geometry" />
        </mxCell>
        <mxCell id="pYFTRabutMhb-Dyx74qj-625" value="" style="rounded=1;whiteSpace=wrap;html=1;fillColor=#008a00;fontColor=#ffffff;strokeColor=#005700;" vertex="1" parent="1">
          <mxGeometry x="2025" y="1424.22" width="135" height="15" as="geometry" />
        </mxCell>
        <mxCell id="pYFTRabutMhb-Dyx74qj-626" value="&lt;font style=&quot;color: light-dark(rgb(255, 255, 255), rgb(237, 237, 237)); font-size: 8px;&quot;&gt;Добавить горизонтальные курсоры&lt;br&gt;&lt;/font&gt;" style="text;html=1;align=center;verticalAlign=middle;whiteSpace=wrap;rounded=0;" vertex="1" parent="1">
          <mxGeometry x="2025" y="1421.72" width="135" height="17.5" as="geometry" />
        </mxCell>
        <mxCell id="pYFTRabutMhb-Dyx74qj-627" value="" style="rounded=1;whiteSpace=wrap;html=1;fillColor=#008a00;fontColor=#ffffff;strokeColor=#005700;" vertex="1" parent="1">
          <mxGeometry x="2025" y="1442.97" width="135" height="15" as="geometry" />
        </mxCell>
        <mxCell id="pYFTRabutMhb-Dyx74qj-628" value="&lt;font style=&quot;color: light-dark(rgb(255, 255, 255), rgb(237, 237, 237)); font-size: 8px;&quot;&gt;Очистить&amp;nbsp;&lt;/font&gt;&lt;font style=&quot;color: light-dark(rgb(255, 255, 255), rgb(237, 237, 237)); font-size: 8px;&quot;&gt;горизонтальные&lt;/font&gt;&lt;font style=&quot;color: light-dark(rgb(255, 255, 255), rgb(237, 237, 237)); font-size: 8px;&quot;&gt; курсоры&lt;br&gt;&lt;/font&gt;" style="text;html=1;align=center;verticalAlign=middle;whiteSpace=wrap;rounded=0;" vertex="1" parent="1">
          <mxGeometry x="2026.25" y="1440.78" width="133.75" height="17.5" as="geometry" />
        </mxCell>
        <mxCell id="pYFTRabutMhb-Dyx74qj-629" value="&lt;div style=&quot;line-height: 80%;&quot;&gt;&lt;div&gt;&lt;font style=&quot;color: light-dark(rgb(46, 50, 145), rgb(237, 237, 237)); font-size: 8px; line-height: 80%;&quot;&gt;Курсор 1 по оси Y:&lt;br&gt;&lt;/font&gt;&lt;/div&gt;&lt;/div&gt;" style="text;html=1;align=left;verticalAlign=middle;whiteSpace=wrap;rounded=0;" vertex="1" parent="1">
          <mxGeometry x="2025" y="1460" width="80" height="20" as="geometry" />
        </mxCell>
        <mxCell id="pYFTRabutMhb-Dyx74qj-630" value="&lt;font style=&quot;font-size: 8px; color: light-dark(rgb(119, 118, 123), rgb(237, 237, 237));&quot;&gt;хххххххх&lt;/font&gt;" style="rounded=1;whiteSpace=wrap;html=1;strokeColor=light-dark(#3d3846, #ededed);" vertex="1" parent="1">
          <mxGeometry x="2110" y="1463.1299999999999" width="50" height="13.75" as="geometry" />
        </mxCell>
        <mxCell id="pYFTRabutMhb-Dyx74qj-631" value="&lt;div style=&quot;line-height: 80%;&quot;&gt;&lt;div&gt;&lt;font style=&quot;color: light-dark(rgb(46, 50, 145), rgb(237, 237, 237)); font-size: 8px; line-height: 80%;&quot;&gt;Курсор 2 по оси Y:&lt;br&gt;&lt;/font&gt;&lt;/div&gt;&lt;/div&gt;" style="text;html=1;align=left;verticalAlign=middle;whiteSpace=wrap;rounded=0;" vertex="1" parent="1">
          <mxGeometry x="2025" y="1476.88" width="80" height="20" as="geometry" />
        </mxCell>
        <mxCell id="pYFTRabutMhb-Dyx74qj-632" value="&lt;font style=&quot;font-size: 8px; color: light-dark(rgb(119, 118, 123), rgb(237, 237, 237));&quot;&gt;хххххххх&lt;/font&gt;" style="rounded=1;whiteSpace=wrap;html=1;strokeColor=light-dark(#3d3846, #ededed);" vertex="1" parent="1">
          <mxGeometry x="2110" y="1480.01" width="50" height="13.75" as="geometry" />
        </mxCell>
        <mxCell id="pYFTRabutMhb-Dyx74qj-633" value="&lt;div align=&quot;right&quot; style=&quot;line-height: 80%;&quot;&gt;&lt;div&gt;&lt;font style=&quot;color: light-dark(rgb(46, 50, 145), rgb(237, 237, 237)); font-size: 8px; line-height: 80%;&quot;&gt;Дельта Y:&lt;br&gt;&lt;/font&gt;&lt;/div&gt;&lt;/div&gt;" style="text;html=1;align=left;verticalAlign=middle;whiteSpace=wrap;rounded=0;" vertex="1" parent="1">
          <mxGeometry x="2057.5" y="1493.76" width="45" height="20" as="geometry" />
        </mxCell>
        <mxCell id="pYFTRabutMhb-Dyx74qj-634" value="&lt;font style=&quot;font-size: 8px; color: light-dark(rgb(119, 118, 123), rgb(237, 237, 237));&quot;&gt;хххххххх&lt;/font&gt;" style="rounded=1;whiteSpace=wrap;html=1;strokeColor=light-dark(#3d3846, #ededed);" vertex="1" parent="1">
          <mxGeometry x="2110" y="1496.89" width="50" height="13.75" as="geometry" />
        </mxCell>
        <mxCell id="pYFTRabutMhb-Dyx74qj-635" value="" style="rounded=0;whiteSpace=wrap;html=1;strokeColor=light-dark(#77767b, #ededed);" vertex="1" parent="1">
          <mxGeometry x="2180" y="1305" width="240" height="215" as="geometry" />
        </mxCell>
        <mxCell id="pYFTRabutMhb-Dyx74qj-636" value="&lt;font style=&quot;color: light-dark(rgb(46, 50, 145), rgb(237, 237, 237)); font-size: 8px;&quot;&gt;&lt;strong&gt;График&lt;br&gt;&lt;/strong&gt;&lt;/font&gt;" style="text;html=1;align=center;verticalAlign=middle;whiteSpace=wrap;rounded=0;" vertex="1" parent="1">
          <mxGeometry x="2180" y="1305" width="50" height="15" as="geometry" />
        </mxCell>
        <mxCell id="pYFTRabutMhb-Dyx74qj-637" value="" style="rounded=0;whiteSpace=wrap;html=1;" vertex="1" parent="1">
          <mxGeometry x="2190" y="1325" width="220" height="185" as="geometry" />
        </mxCell>
        <mxCell id="pYFTRabutMhb-Dyx74qj-638" value="" style="endArrow=none;html=1;rounded=0;entryX=0;entryY=0;entryDx=0;entryDy=0;exitX=1;exitY=1;exitDx=0;exitDy=0;" edge="1" parent="1" source="pYFTRabutMhb-Dyx74qj-637" target="pYFTRabutMhb-Dyx74qj-637">
          <mxGeometry width="50" height="50" relative="1" as="geometry">
            <mxPoint x="2240" y="1420" as="sourcePoint" />
            <mxPoint x="2290" y="1370" as="targetPoint" />
          </mxGeometry>
        </mxCell>
        <mxCell id="pYFTRabutMhb-Dyx74qj-639" value="" style="endArrow=none;html=1;rounded=0;entryX=1;entryY=0;entryDx=0;entryDy=0;exitX=0;exitY=1;exitDx=0;exitDy=0;" edge="1" parent="1" source="pYFTRabutMhb-Dyx74qj-637" target="pYFTRabutMhb-Dyx74qj-637">
          <mxGeometry width="50" height="50" relative="1" as="geometry">
            <mxPoint x="2300" y="1420" as="sourcePoint" />
            <mxPoint x="2350" y="1370" as="targetPoint" />
          </mxGeometry>
        </mxCell>
        <mxCell id="pYFTRabutMhb-Dyx74qj-640" value="" style="rounded=0;whiteSpace=wrap;html=1;fontColor=light-dark(#FFFFFF,#EDEDED);fillColor=#009900;" vertex="1" parent="1">
          <mxGeometry x="2480" y="1280" width="680" height="320" as="geometry" />
        </mxCell>
        <mxCell id="pYFTRabutMhb-Dyx74qj-641" value="" style="group" vertex="1" connectable="0" parent="1">
          <mxGeometry x="2480" y="1280" width="240" height="20" as="geometry" />
        </mxCell>
        <mxCell id="pYFTRabutMhb-Dyx74qj-642" value="" style="rounded=0;whiteSpace=wrap;html=1;align=center;" vertex="1" parent="pYFTRabutMhb-Dyx74qj-641">
          <mxGeometry width="240" height="20" as="geometry" />
        </mxCell>
        <mxCell id="pYFTRabutMhb-Dyx74qj-643" value="" style="triangle;whiteSpace=wrap;html=1;rotation=0;" vertex="1" parent="pYFTRabutMhb-Dyx74qj-641">
          <mxGeometry x="10" y="4.680000000000007" width="10.62" height="10.63" as="geometry" />
        </mxCell>
        <mxCell id="pYFTRabutMhb-Dyx74qj-644" value="" style="rounded=0;whiteSpace=wrap;html=1;" vertex="1" parent="1">
          <mxGeometry x="2480" y="1400" width="240" height="200" as="geometry" />
        </mxCell>
        <mxCell id="pYFTRabutMhb-Dyx74qj-645" value="&lt;div&gt;&lt;font&gt;Менеджер устройств&lt;/font&gt;&lt;/div&gt;" style="text;html=1;align=left;verticalAlign=middle;whiteSpace=wrap;rounded=0;fontStyle=1" vertex="1" parent="1">
          <mxGeometry x="2510" y="1280" width="210" height="20" as="geometry" />
        </mxCell>
        <mxCell id="pYFTRabutMhb-Dyx74qj-646" value="" style="text;html=1;align=left;verticalAlign=middle;whiteSpace=wrap;rounded=0;fillColor=default;fontColor=#000000;" vertex="1" parent="1">
          <mxGeometry x="2480" y="1339.69" width="240" height="20" as="geometry" />
        </mxCell>
        <mxCell id="pYFTRabutMhb-Dyx74qj-647" value="" style="group" vertex="1" connectable="0" parent="1">
          <mxGeometry x="2480" y="1300" width="240" height="20" as="geometry" />
        </mxCell>
        <mxCell id="pYFTRabutMhb-Dyx74qj-648" value="" style="rounded=0;whiteSpace=wrap;html=1;align=center;" vertex="1" parent="pYFTRabutMhb-Dyx74qj-647">
          <mxGeometry width="240" height="20" as="geometry" />
        </mxCell>
        <mxCell id="pYFTRabutMhb-Dyx74qj-649" value="" style="triangle;whiteSpace=wrap;html=1;rotation=0;" vertex="1" parent="pYFTRabutMhb-Dyx74qj-647">
          <mxGeometry x="10" y="4.680000000000007" width="10.62" height="10.63" as="geometry" />
        </mxCell>
        <mxCell id="pYFTRabutMhb-Dyx74qj-650" value="&lt;font&gt;Менеджер локаторов&lt;/font&gt;" style="text;html=1;align=left;verticalAlign=middle;whiteSpace=wrap;rounded=0;fontStyle=1" vertex="1" parent="1">
          <mxGeometry x="2510" y="1300" width="210" height="20" as="geometry" />
        </mxCell>
        <mxCell id="pYFTRabutMhb-Dyx74qj-651" value="" style="group" vertex="1" connectable="0" parent="1">
          <mxGeometry x="2480" y="1320" width="240" height="20" as="geometry" />
        </mxCell>
        <mxCell id="pYFTRabutMhb-Dyx74qj-652" value="" style="rounded=0;whiteSpace=wrap;html=1;align=center;" vertex="1" parent="pYFTRabutMhb-Dyx74qj-651">
          <mxGeometry width="240" height="20" as="geometry" />
        </mxCell>
        <mxCell id="pYFTRabutMhb-Dyx74qj-653" value="" style="triangle;whiteSpace=wrap;html=1;rotation=90;" vertex="1" parent="pYFTRabutMhb-Dyx74qj-651">
          <mxGeometry x="10" y="4.680000000000007" width="10.62" height="10.63" as="geometry" />
        </mxCell>
        <mxCell id="pYFTRabutMhb-Dyx74qj-654" value="&lt;font&gt;Сигналы во временной области&lt;/font&gt;" style="text;html=1;align=left;verticalAlign=middle;whiteSpace=wrap;rounded=0;fontStyle=1" vertex="1" parent="1">
          <mxGeometry x="2510" y="1320" width="210" height="20" as="geometry" />
        </mxCell>
        <mxCell id="pYFTRabutMhb-Dyx74qj-655" value="" style="group" vertex="1" connectable="0" parent="1">
          <mxGeometry x="2480" y="1380.93" width="240" height="20" as="geometry" />
        </mxCell>
        <mxCell id="pYFTRabutMhb-Dyx74qj-656" value="" style="rounded=0;whiteSpace=wrap;html=1;align=center;" vertex="1" parent="pYFTRabutMhb-Dyx74qj-655">
          <mxGeometry width="240" height="20" as="geometry" />
        </mxCell>
        <mxCell id="pYFTRabutMhb-Dyx74qj-657" value="" style="triangle;whiteSpace=wrap;html=1;rotation=0;" vertex="1" parent="pYFTRabutMhb-Dyx74qj-655">
          <mxGeometry x="10" y="4.680000000000007" width="10.62" height="10.63" as="geometry" />
        </mxCell>
        <mxCell id="pYFTRabutMhb-Dyx74qj-658" value="&lt;div&gt;&lt;font&gt;Сигналы в частотной области&lt;font&gt;&lt;br&gt;&lt;/font&gt;&lt;/font&gt;&lt;/div&gt;" style="text;html=1;align=left;verticalAlign=middle;whiteSpace=wrap;rounded=0;fontStyle=1" vertex="1" parent="pYFTRabutMhb-Dyx74qj-655">
          <mxGeometry x="30" width="210" height="20" as="geometry" />
        </mxCell>
        <mxCell id="pYFTRabutMhb-Dyx74qj-660" value="&lt;span style=&quot;color: light-dark(rgb(255, 255, 255), rgb(237, 237, 237));&quot;&gt;Теоритический излучаемый сигнал&lt;/span&gt;" style="text;html=1;align=left;verticalAlign=middle;whiteSpace=wrap;rounded=0;" vertex="1" parent="1">
          <mxGeometry x="2510" y="1360.9299999999998" width="210" height="20" as="geometry" />
        </mxCell>
        <mxCell id="pYFTRabutMhb-Dyx74qj-661" value="" style="rounded=0;whiteSpace=wrap;html=1;" vertex="1" parent="1">
          <mxGeometry x="2730" y="1300" width="420" height="290" as="geometry" />
        </mxCell>
        <mxCell id="pYFTRabutMhb-Dyx74qj-662" value="&lt;b&gt;&lt;span style=&quot;color: light-dark(rgb(255, 255, 255), rgb(237, 237, 237));&quot;&gt;Теоритический излучаемый сигнал&lt;/span&gt;&lt;/b&gt;" style="text;html=1;align=left;verticalAlign=middle;whiteSpace=wrap;rounded=0;fillColor=none;" vertex="1" parent="1">
          <mxGeometry x="2730" y="1280" width="230" height="20" as="geometry" />
        </mxCell>
        <mxCell id="pYFTRabutMhb-Dyx74qj-663" value="" style="rounded=0;whiteSpace=wrap;html=1;strokeColor=light-dark(#77767b, #ededed);" vertex="1" parent="1">
          <mxGeometry x="2740" y="1305" width="150" height="215" as="geometry" />
        </mxCell>
        <mxCell id="pYFTRabutMhb-Dyx74qj-664" value="&lt;font style=&quot;color: light-dark(rgb(46, 50, 145), rgb(237, 237, 237)); font-size: 8px;&quot;&gt;&lt;strong&gt;Управление курсорами&lt;br&gt;&lt;/strong&gt;&lt;/font&gt;" style="text;html=1;align=center;verticalAlign=middle;whiteSpace=wrap;rounded=0;" vertex="1" parent="1">
          <mxGeometry x="2740" y="1305" width="110" height="15" as="geometry" />
        </mxCell>
        <mxCell id="pYFTRabutMhb-Dyx74qj-665" value="" style="rounded=1;whiteSpace=wrap;html=1;fillColor=#008a00;fontColor=#ffffff;strokeColor=#005700;" vertex="1" parent="1">
          <mxGeometry x="2745" y="1323.75" width="135" height="15" as="geometry" />
        </mxCell>
        <mxCell id="pYFTRabutMhb-Dyx74qj-666" value="&lt;font style=&quot;color: light-dark(rgb(255, 255, 255), rgb(237, 237, 237)); font-size: 8px;&quot;&gt;Добавить вертикальные курсоры&lt;br&gt;&lt;/font&gt;" style="text;html=1;align=center;verticalAlign=middle;whiteSpace=wrap;rounded=0;" vertex="1" parent="1">
          <mxGeometry x="2745" y="1321.25" width="135" height="17.5" as="geometry" />
        </mxCell>
        <mxCell id="pYFTRabutMhb-Dyx74qj-667" value="" style="rounded=1;whiteSpace=wrap;html=1;fillColor=#008a00;fontColor=#ffffff;strokeColor=#005700;" vertex="1" parent="1">
          <mxGeometry x="2745" y="1342.5" width="135" height="15" as="geometry" />
        </mxCell>
        <mxCell id="pYFTRabutMhb-Dyx74qj-668" value="&lt;font style=&quot;color: light-dark(rgb(255, 255, 255), rgb(237, 237, 237)); font-size: 8px;&quot;&gt;Очистить вертикальные курсоры&lt;br&gt;&lt;/font&gt;" style="text;html=1;align=center;verticalAlign=middle;whiteSpace=wrap;rounded=0;" vertex="1" parent="1">
          <mxGeometry x="2746.25" y="1340.31" width="133.75" height="17.5" as="geometry" />
        </mxCell>
        <mxCell id="pYFTRabutMhb-Dyx74qj-669" value="&lt;div style=&quot;line-height: 80%;&quot;&gt;&lt;div&gt;&lt;font style=&quot;color: light-dark(rgb(46, 50, 145), rgb(237, 237, 237)); font-size: 8px; line-height: 80%;&quot;&gt;Курсор 1 по оси X:&lt;br&gt;&lt;/font&gt;&lt;/div&gt;&lt;/div&gt;" style="text;html=1;align=left;verticalAlign=middle;whiteSpace=wrap;rounded=0;" vertex="1" parent="1">
          <mxGeometry x="2745" y="1360.93" width="80" height="20" as="geometry" />
        </mxCell>
        <mxCell id="pYFTRabutMhb-Dyx74qj-670" value="&lt;font style=&quot;font-size: 8px; color: light-dark(rgb(119, 118, 123), rgb(237, 237, 237));&quot;&gt;хххххххх&lt;/font&gt;" style="rounded=1;whiteSpace=wrap;html=1;strokeColor=light-dark(#3d3846, #ededed);" vertex="1" parent="1">
          <mxGeometry x="2830" y="1364.06" width="50" height="13.75" as="geometry" />
        </mxCell>
        <mxCell id="pYFTRabutMhb-Dyx74qj-671" value="&lt;div style=&quot;line-height: 80%;&quot;&gt;&lt;div&gt;&lt;font style=&quot;color: light-dark(rgb(46, 50, 145), rgb(237, 237, 237)); font-size: 8px; line-height: 80%;&quot;&gt;Курсор 2 по оси X:&lt;br&gt;&lt;/font&gt;&lt;/div&gt;&lt;/div&gt;" style="text;html=1;align=left;verticalAlign=middle;whiteSpace=wrap;rounded=0;" vertex="1" parent="1">
          <mxGeometry x="2745" y="1377.8100000000002" width="80" height="20" as="geometry" />
        </mxCell>
        <mxCell id="pYFTRabutMhb-Dyx74qj-672" value="&lt;font style=&quot;font-size: 8px; color: light-dark(rgb(119, 118, 123), rgb(237, 237, 237));&quot;&gt;хххххххх&lt;/font&gt;" style="rounded=1;whiteSpace=wrap;html=1;strokeColor=light-dark(#3d3846, #ededed);" vertex="1" parent="1">
          <mxGeometry x="2830" y="1380.94" width="50" height="13.75" as="geometry" />
        </mxCell>
        <mxCell id="pYFTRabutMhb-Dyx74qj-673" value="&lt;div align=&quot;right&quot; style=&quot;line-height: 80%;&quot;&gt;&lt;div&gt;&lt;font style=&quot;color: light-dark(rgb(46, 50, 145), rgb(237, 237, 237)); font-size: 8px; line-height: 80%;&quot;&gt;Дельта X:&lt;br&gt;&lt;/font&gt;&lt;/div&gt;&lt;/div&gt;" style="text;html=1;align=left;verticalAlign=middle;whiteSpace=wrap;rounded=0;" vertex="1" parent="1">
          <mxGeometry x="2777.5" y="1394.69" width="45" height="20" as="geometry" />
        </mxCell>
        <mxCell id="pYFTRabutMhb-Dyx74qj-674" value="&lt;font style=&quot;font-size: 8px; color: light-dark(rgb(119, 118, 123), rgb(237, 237, 237));&quot;&gt;хххххххх&lt;/font&gt;" style="rounded=1;whiteSpace=wrap;html=1;strokeColor=light-dark(#3d3846, #ededed);" vertex="1" parent="1">
          <mxGeometry x="2830" y="1397.8200000000002" width="50" height="13.75" as="geometry" />
        </mxCell>
        <mxCell id="pYFTRabutMhb-Dyx74qj-675" value="" style="rounded=1;whiteSpace=wrap;html=1;fillColor=#008a00;fontColor=#ffffff;strokeColor=#005700;" vertex="1" parent="1">
          <mxGeometry x="2745" y="1424.22" width="135" height="15" as="geometry" />
        </mxCell>
        <mxCell id="pYFTRabutMhb-Dyx74qj-676" value="&lt;font style=&quot;color: light-dark(rgb(255, 255, 255), rgb(237, 237, 237)); font-size: 8px;&quot;&gt;Добавить горизонтальные курсоры&lt;br&gt;&lt;/font&gt;" style="text;html=1;align=center;verticalAlign=middle;whiteSpace=wrap;rounded=0;" vertex="1" parent="1">
          <mxGeometry x="2745" y="1421.72" width="135" height="17.5" as="geometry" />
        </mxCell>
        <mxCell id="pYFTRabutMhb-Dyx74qj-677" value="" style="rounded=1;whiteSpace=wrap;html=1;fillColor=#008a00;fontColor=#ffffff;strokeColor=#005700;" vertex="1" parent="1">
          <mxGeometry x="2745" y="1442.97" width="135" height="15" as="geometry" />
        </mxCell>
        <mxCell id="pYFTRabutMhb-Dyx74qj-678" value="&lt;font style=&quot;color: light-dark(rgb(255, 255, 255), rgb(237, 237, 237)); font-size: 8px;&quot;&gt;Очистить&amp;nbsp;&lt;/font&gt;&lt;font style=&quot;color: light-dark(rgb(255, 255, 255), rgb(237, 237, 237)); font-size: 8px;&quot;&gt;горизонтальные&lt;/font&gt;&lt;font style=&quot;color: light-dark(rgb(255, 255, 255), rgb(237, 237, 237)); font-size: 8px;&quot;&gt; курсоры&lt;br&gt;&lt;/font&gt;" style="text;html=1;align=center;verticalAlign=middle;whiteSpace=wrap;rounded=0;" vertex="1" parent="1">
          <mxGeometry x="2746.25" y="1440.78" width="133.75" height="17.5" as="geometry" />
        </mxCell>
        <mxCell id="pYFTRabutMhb-Dyx74qj-679" value="&lt;div style=&quot;line-height: 80%;&quot;&gt;&lt;div&gt;&lt;font style=&quot;color: light-dark(rgb(46, 50, 145), rgb(237, 237, 237)); font-size: 8px; line-height: 80%;&quot;&gt;Курсор 1 по оси Y:&lt;br&gt;&lt;/font&gt;&lt;/div&gt;&lt;/div&gt;" style="text;html=1;align=left;verticalAlign=middle;whiteSpace=wrap;rounded=0;" vertex="1" parent="1">
          <mxGeometry x="2745" y="1460" width="80" height="20" as="geometry" />
        </mxCell>
        <mxCell id="pYFTRabutMhb-Dyx74qj-680" value="&lt;font style=&quot;font-size: 8px; color: light-dark(rgb(119, 118, 123), rgb(237, 237, 237));&quot;&gt;хххххххх&lt;/font&gt;" style="rounded=1;whiteSpace=wrap;html=1;strokeColor=light-dark(#3d3846, #ededed);" vertex="1" parent="1">
          <mxGeometry x="2830" y="1463.1299999999999" width="50" height="13.75" as="geometry" />
        </mxCell>
        <mxCell id="pYFTRabutMhb-Dyx74qj-681" value="&lt;div style=&quot;line-height: 80%;&quot;&gt;&lt;div&gt;&lt;font style=&quot;color: light-dark(rgb(46, 50, 145), rgb(237, 237, 237)); font-size: 8px; line-height: 80%;&quot;&gt;Курсор 2 по оси Y:&lt;br&gt;&lt;/font&gt;&lt;/div&gt;&lt;/div&gt;" style="text;html=1;align=left;verticalAlign=middle;whiteSpace=wrap;rounded=0;" vertex="1" parent="1">
          <mxGeometry x="2745" y="1476.88" width="80" height="20" as="geometry" />
        </mxCell>
        <mxCell id="pYFTRabutMhb-Dyx74qj-682" value="&lt;font style=&quot;font-size: 8px; color: light-dark(rgb(119, 118, 123), rgb(237, 237, 237));&quot;&gt;хххххххх&lt;/font&gt;" style="rounded=1;whiteSpace=wrap;html=1;strokeColor=light-dark(#3d3846, #ededed);" vertex="1" parent="1">
          <mxGeometry x="2830" y="1480.01" width="50" height="13.75" as="geometry" />
        </mxCell>
        <mxCell id="pYFTRabutMhb-Dyx74qj-683" value="&lt;div align=&quot;right&quot; style=&quot;line-height: 80%;&quot;&gt;&lt;div&gt;&lt;font style=&quot;color: light-dark(rgb(46, 50, 145), rgb(237, 237, 237)); font-size: 8px; line-height: 80%;&quot;&gt;Дельта Y:&lt;br&gt;&lt;/font&gt;&lt;/div&gt;&lt;/div&gt;" style="text;html=1;align=left;verticalAlign=middle;whiteSpace=wrap;rounded=0;" vertex="1" parent="1">
          <mxGeometry x="2777.5" y="1493.76" width="45" height="20" as="geometry" />
        </mxCell>
        <mxCell id="pYFTRabutMhb-Dyx74qj-684" value="&lt;font style=&quot;font-size: 8px; color: light-dark(rgb(119, 118, 123), rgb(237, 237, 237));&quot;&gt;хххххххх&lt;/font&gt;" style="rounded=1;whiteSpace=wrap;html=1;strokeColor=light-dark(#3d3846, #ededed);" vertex="1" parent="1">
          <mxGeometry x="2830" y="1496.89" width="50" height="13.75" as="geometry" />
        </mxCell>
        <mxCell id="pYFTRabutMhb-Dyx74qj-685" value="" style="rounded=0;whiteSpace=wrap;html=1;strokeColor=light-dark(#77767b, #ededed);" vertex="1" parent="1">
          <mxGeometry x="2900" y="1305" width="240" height="215" as="geometry" />
        </mxCell>
        <mxCell id="pYFTRabutMhb-Dyx74qj-686" value="&lt;font style=&quot;color: light-dark(rgb(46, 50, 145), rgb(237, 237, 237)); font-size: 8px;&quot;&gt;&lt;strong&gt;График&lt;br&gt;&lt;/strong&gt;&lt;/font&gt;" style="text;html=1;align=center;verticalAlign=middle;whiteSpace=wrap;rounded=0;" vertex="1" parent="1">
          <mxGeometry x="2900" y="1305" width="50" height="15" as="geometry" />
        </mxCell>
        <mxCell id="pYFTRabutMhb-Dyx74qj-687" value="" style="rounded=0;whiteSpace=wrap;html=1;" vertex="1" parent="1">
          <mxGeometry x="2910" y="1325" width="220" height="185" as="geometry" />
        </mxCell>
        <mxCell id="pYFTRabutMhb-Dyx74qj-688" value="" style="endArrow=none;html=1;rounded=0;entryX=0;entryY=0;entryDx=0;entryDy=0;exitX=1;exitY=1;exitDx=0;exitDy=0;" edge="1" parent="1" source="pYFTRabutMhb-Dyx74qj-687" target="pYFTRabutMhb-Dyx74qj-687">
          <mxGeometry width="50" height="50" relative="1" as="geometry">
            <mxPoint x="2960" y="1420" as="sourcePoint" />
            <mxPoint x="3010" y="1370" as="targetPoint" />
          </mxGeometry>
        </mxCell>
        <mxCell id="pYFTRabutMhb-Dyx74qj-689" value="" style="endArrow=none;html=1;rounded=0;entryX=1;entryY=0;entryDx=0;entryDy=0;exitX=0;exitY=1;exitDx=0;exitDy=0;" edge="1" parent="1" source="pYFTRabutMhb-Dyx74qj-687" target="pYFTRabutMhb-Dyx74qj-687">
          <mxGeometry width="50" height="50" relative="1" as="geometry">
            <mxPoint x="3020" y="1420" as="sourcePoint" />
            <mxPoint x="3070" y="1370" as="targetPoint" />
          </mxGeometry>
        </mxCell>
        <mxCell id="pYFTRabutMhb-Dyx74qj-691" value="" style="rounded=0;whiteSpace=wrap;html=1;" vertex="1" parent="1">
          <mxGeometry x="2480" y="1340" width="240" height="20" as="geometry" />
        </mxCell>
        <mxCell id="pYFTRabutMhb-Dyx74qj-692" value="&lt;div align=&quot;left&quot;&gt;&lt;span style=&quot;&quot;&gt;&lt;span style=&quot;white-space: pre;&quot;&gt;&#x9;&lt;/span&gt; Излучаемый сигнал&lt;/span&gt;&lt;/div&gt;" style="text;html=1;align=left;verticalAlign=middle;whiteSpace=wrap;rounded=0;" vertex="1" parent="1">
          <mxGeometry x="2480" y="1339" width="220" height="21" as="geometry" />
        </mxCell>
        <mxCell id="pYFTRabutMhb-Dyx74qj-693" value="" style="rounded=0;whiteSpace=wrap;html=1;fontColor=light-dark(#009900,#EDEDED);" vertex="1" parent="1">
          <mxGeometry x="1040" y="1640" width="680" height="320" as="geometry" />
        </mxCell>
        <mxCell id="pYFTRabutMhb-Dyx74qj-694" value="" style="group" vertex="1" connectable="0" parent="1">
          <mxGeometry x="1040" y="1640" width="240" height="20" as="geometry" />
        </mxCell>
        <mxCell id="pYFTRabutMhb-Dyx74qj-695" value="" style="rounded=0;whiteSpace=wrap;html=1;align=center;" vertex="1" parent="pYFTRabutMhb-Dyx74qj-694">
          <mxGeometry width="240" height="20" as="geometry" />
        </mxCell>
        <mxCell id="pYFTRabutMhb-Dyx74qj-696" value="" style="triangle;whiteSpace=wrap;html=1;rotation=0;" vertex="1" parent="pYFTRabutMhb-Dyx74qj-694">
          <mxGeometry x="10" y="4.680000000000007" width="10.62" height="10.63" as="geometry" />
        </mxCell>
        <mxCell id="pYFTRabutMhb-Dyx74qj-697" value="" style="rounded=0;whiteSpace=wrap;html=1;" vertex="1" parent="1">
          <mxGeometry x="1040" y="1740" width="240" height="220" as="geometry" />
        </mxCell>
        <mxCell id="pYFTRabutMhb-Dyx74qj-698" value="&lt;div&gt;&lt;font&gt;Менеджер устройств&lt;/font&gt;&lt;/div&gt;" style="text;html=1;align=left;verticalAlign=middle;whiteSpace=wrap;rounded=0;fontStyle=1" vertex="1" parent="1">
          <mxGeometry x="1070" y="1640" width="210" height="20" as="geometry" />
        </mxCell>
        <mxCell id="pYFTRabutMhb-Dyx74qj-701" value="" style="group" vertex="1" connectable="0" parent="1">
          <mxGeometry x="1040" y="1660" width="240" height="20" as="geometry" />
        </mxCell>
        <mxCell id="pYFTRabutMhb-Dyx74qj-702" value="" style="rounded=0;whiteSpace=wrap;html=1;align=center;" vertex="1" parent="pYFTRabutMhb-Dyx74qj-701">
          <mxGeometry width="240" height="20" as="geometry" />
        </mxCell>
        <mxCell id="pYFTRabutMhb-Dyx74qj-703" value="" style="triangle;whiteSpace=wrap;html=1;rotation=0;" vertex="1" parent="pYFTRabutMhb-Dyx74qj-701">
          <mxGeometry x="10" y="4.680000000000007" width="10.62" height="10.63" as="geometry" />
        </mxCell>
        <mxCell id="pYFTRabutMhb-Dyx74qj-704" value="&lt;font&gt;Менеджер локаторов&lt;/font&gt;" style="text;html=1;align=left;verticalAlign=middle;whiteSpace=wrap;rounded=0;fontStyle=1" vertex="1" parent="1">
          <mxGeometry x="1070" y="1660" width="210" height="20" as="geometry" />
        </mxCell>
        <mxCell id="pYFTRabutMhb-Dyx74qj-705" value="" style="group" vertex="1" connectable="0" parent="1">
          <mxGeometry x="1040" y="1680" width="240" height="20" as="geometry" />
        </mxCell>
        <mxCell id="pYFTRabutMhb-Dyx74qj-706" value="" style="rounded=0;whiteSpace=wrap;html=1;align=center;" vertex="1" parent="pYFTRabutMhb-Dyx74qj-705">
          <mxGeometry width="240" height="20" as="geometry" />
        </mxCell>
        <mxCell id="pYFTRabutMhb-Dyx74qj-707" value="" style="triangle;whiteSpace=wrap;html=1;rotation=0;" vertex="1" parent="pYFTRabutMhb-Dyx74qj-705">
          <mxGeometry x="10" y="4.680000000000007" width="10.62" height="10.63" as="geometry" />
        </mxCell>
        <mxCell id="pYFTRabutMhb-Dyx74qj-708" value="&lt;font&gt;Сигналы во временной области&lt;/font&gt;" style="text;html=1;align=left;verticalAlign=middle;whiteSpace=wrap;rounded=0;fontStyle=1" vertex="1" parent="1">
          <mxGeometry x="1070" y="1680" width="210" height="20" as="geometry" />
        </mxCell>
        <mxCell id="pYFTRabutMhb-Dyx74qj-713" value="&amp;nbsp;" style="rounded=0;whiteSpace=wrap;html=1;fontColor=light-dark(#1c531e, #ededed);" vertex="1" parent="1">
          <mxGeometry x="1040" y="1719.6899999999998" width="240" height="20" as="geometry" />
        </mxCell>
        <mxCell id="pYFTRabutMhb-Dyx74qj-714" value="Теоритический излучаемый сигнал" style="text;html=1;align=left;verticalAlign=middle;whiteSpace=wrap;rounded=0;" vertex="1" parent="1">
          <mxGeometry x="1065" y="1720" width="210" height="20" as="geometry" />
        </mxCell>
        <mxCell id="pYFTRabutMhb-Dyx74qj-715" value="" style="rounded=0;whiteSpace=wrap;html=1;fontColor=light-dark(#009900,#EDEDED);fillColor=#009900;" vertex="1" parent="1">
          <mxGeometry x="1760" y="1640" width="680" height="320" as="geometry" />
        </mxCell>
        <mxCell id="pYFTRabutMhb-Dyx74qj-736" value="" style="rounded=0;whiteSpace=wrap;html=1;" vertex="1" parent="1">
          <mxGeometry x="2010" y="1660" width="420" height="290" as="geometry" />
        </mxCell>
        <mxCell id="pYFTRabutMhb-Dyx74qj-737" value="&lt;b&gt;&lt;span style=&quot;color: light-dark(rgb(255, 255, 255), rgb(237, 237, 237));&quot;&gt;Теоритический излучаемый сигнал&lt;/span&gt;&lt;/b&gt;" style="text;html=1;align=left;verticalAlign=middle;whiteSpace=wrap;rounded=0;fillColor=none;" vertex="1" parent="1">
          <mxGeometry x="2010" y="1640" width="240" height="20" as="geometry" />
        </mxCell>
        <mxCell id="pYFTRabutMhb-Dyx74qj-738" value="" style="rounded=0;whiteSpace=wrap;html=1;strokeColor=light-dark(#77767b, #ededed);" vertex="1" parent="1">
          <mxGeometry x="2020" y="1665" width="150" height="215" as="geometry" />
        </mxCell>
        <mxCell id="pYFTRabutMhb-Dyx74qj-739" value="&lt;font style=&quot;color: light-dark(rgb(46, 50, 145), rgb(237, 237, 237)); font-size: 8px;&quot;&gt;&lt;strong&gt;Управление курсорами&lt;br&gt;&lt;/strong&gt;&lt;/font&gt;" style="text;html=1;align=center;verticalAlign=middle;whiteSpace=wrap;rounded=0;" vertex="1" parent="1">
          <mxGeometry x="2020" y="1665" width="110" height="15" as="geometry" />
        </mxCell>
        <mxCell id="pYFTRabutMhb-Dyx74qj-740" value="" style="rounded=1;whiteSpace=wrap;html=1;fillColor=#008a00;fontColor=#ffffff;strokeColor=#005700;" vertex="1" parent="1">
          <mxGeometry x="2025" y="1683.75" width="135" height="15" as="geometry" />
        </mxCell>
        <mxCell id="pYFTRabutMhb-Dyx74qj-741" value="&lt;font style=&quot;color: light-dark(rgb(255, 255, 255), rgb(237, 237, 237)); font-size: 8px;&quot;&gt;Добавить вертикальные курсоры&lt;br&gt;&lt;/font&gt;" style="text;html=1;align=center;verticalAlign=middle;whiteSpace=wrap;rounded=0;" vertex="1" parent="1">
          <mxGeometry x="2025" y="1681.25" width="135" height="17.5" as="geometry" />
        </mxCell>
        <mxCell id="pYFTRabutMhb-Dyx74qj-742" value="" style="rounded=1;whiteSpace=wrap;html=1;fillColor=#008a00;fontColor=#ffffff;strokeColor=#005700;" vertex="1" parent="1">
          <mxGeometry x="2025" y="1702.5" width="135" height="15" as="geometry" />
        </mxCell>
        <mxCell id="pYFTRabutMhb-Dyx74qj-743" value="&lt;font style=&quot;color: light-dark(rgb(255, 255, 255), rgb(237, 237, 237)); font-size: 8px;&quot;&gt;Очистить вертикальные курсоры&lt;br&gt;&lt;/font&gt;" style="text;html=1;align=center;verticalAlign=middle;whiteSpace=wrap;rounded=0;" vertex="1" parent="1">
          <mxGeometry x="2026.25" y="1700.31" width="133.75" height="17.5" as="geometry" />
        </mxCell>
        <mxCell id="pYFTRabutMhb-Dyx74qj-744" value="&lt;div style=&quot;line-height: 80%;&quot;&gt;&lt;div&gt;&lt;font style=&quot;color: light-dark(rgb(46, 50, 145), rgb(237, 237, 237)); font-size: 8px; line-height: 80%;&quot;&gt;Курсор 1 по оси X:&lt;br&gt;&lt;/font&gt;&lt;/div&gt;&lt;/div&gt;" style="text;html=1;align=left;verticalAlign=middle;whiteSpace=wrap;rounded=0;" vertex="1" parent="1">
          <mxGeometry x="2025" y="1720.93" width="80" height="20" as="geometry" />
        </mxCell>
        <mxCell id="pYFTRabutMhb-Dyx74qj-745" value="&lt;font style=&quot;font-size: 8px; color: light-dark(rgb(119, 118, 123), rgb(237, 237, 237));&quot;&gt;хххххххх&lt;/font&gt;" style="rounded=1;whiteSpace=wrap;html=1;strokeColor=light-dark(#3d3846, #ededed);" vertex="1" parent="1">
          <mxGeometry x="2110" y="1724.06" width="50" height="13.75" as="geometry" />
        </mxCell>
        <mxCell id="pYFTRabutMhb-Dyx74qj-746" value="&lt;div style=&quot;line-height: 80%;&quot;&gt;&lt;div&gt;&lt;font style=&quot;color: light-dark(rgb(46, 50, 145), rgb(237, 237, 237)); font-size: 8px; line-height: 80%;&quot;&gt;Курсор 2 по оси X:&lt;br&gt;&lt;/font&gt;&lt;/div&gt;&lt;/div&gt;" style="text;html=1;align=left;verticalAlign=middle;whiteSpace=wrap;rounded=0;" vertex="1" parent="1">
          <mxGeometry x="2025" y="1737.8100000000002" width="80" height="20" as="geometry" />
        </mxCell>
        <mxCell id="pYFTRabutMhb-Dyx74qj-747" value="&lt;font style=&quot;font-size: 8px; color: light-dark(rgb(119, 118, 123), rgb(237, 237, 237));&quot;&gt;хххххххх&lt;/font&gt;" style="rounded=1;whiteSpace=wrap;html=1;strokeColor=light-dark(#3d3846, #ededed);" vertex="1" parent="1">
          <mxGeometry x="2110" y="1740.94" width="50" height="13.75" as="geometry" />
        </mxCell>
        <mxCell id="pYFTRabutMhb-Dyx74qj-748" value="&lt;div align=&quot;right&quot; style=&quot;line-height: 80%;&quot;&gt;&lt;div&gt;&lt;font style=&quot;color: light-dark(rgb(46, 50, 145), rgb(237, 237, 237)); font-size: 8px; line-height: 80%;&quot;&gt;Дельта X:&lt;br&gt;&lt;/font&gt;&lt;/div&gt;&lt;/div&gt;" style="text;html=1;align=left;verticalAlign=middle;whiteSpace=wrap;rounded=0;" vertex="1" parent="1">
          <mxGeometry x="2057.5" y="1754.69" width="45" height="20" as="geometry" />
        </mxCell>
        <mxCell id="pYFTRabutMhb-Dyx74qj-749" value="&lt;font style=&quot;font-size: 8px; color: light-dark(rgb(119, 118, 123), rgb(237, 237, 237));&quot;&gt;хххххххх&lt;/font&gt;" style="rounded=1;whiteSpace=wrap;html=1;strokeColor=light-dark(#3d3846, #ededed);" vertex="1" parent="1">
          <mxGeometry x="2110" y="1757.8200000000002" width="50" height="13.75" as="geometry" />
        </mxCell>
        <mxCell id="pYFTRabutMhb-Dyx74qj-750" value="" style="rounded=1;whiteSpace=wrap;html=1;fillColor=#008a00;fontColor=#ffffff;strokeColor=#005700;" vertex="1" parent="1">
          <mxGeometry x="2025" y="1784.22" width="135" height="15" as="geometry" />
        </mxCell>
        <mxCell id="pYFTRabutMhb-Dyx74qj-751" value="&lt;font style=&quot;color: light-dark(rgb(255, 255, 255), rgb(237, 237, 237)); font-size: 8px;&quot;&gt;Добавить горизонтальные курсоры&lt;br&gt;&lt;/font&gt;" style="text;html=1;align=center;verticalAlign=middle;whiteSpace=wrap;rounded=0;" vertex="1" parent="1">
          <mxGeometry x="2025" y="1781.72" width="135" height="17.5" as="geometry" />
        </mxCell>
        <mxCell id="pYFTRabutMhb-Dyx74qj-752" value="" style="rounded=1;whiteSpace=wrap;html=1;fillColor=#008a00;fontColor=#ffffff;strokeColor=#005700;" vertex="1" parent="1">
          <mxGeometry x="2025" y="1802.97" width="135" height="15" as="geometry" />
        </mxCell>
        <mxCell id="pYFTRabutMhb-Dyx74qj-753" value="&lt;font style=&quot;color: light-dark(rgb(255, 255, 255), rgb(237, 237, 237)); font-size: 8px;&quot;&gt;Очистить&amp;nbsp;&lt;/font&gt;&lt;font style=&quot;color: light-dark(rgb(255, 255, 255), rgb(237, 237, 237)); font-size: 8px;&quot;&gt;горизонтальные&lt;/font&gt;&lt;font style=&quot;color: light-dark(rgb(255, 255, 255), rgb(237, 237, 237)); font-size: 8px;&quot;&gt; курсоры&lt;br&gt;&lt;/font&gt;" style="text;html=1;align=center;verticalAlign=middle;whiteSpace=wrap;rounded=0;" vertex="1" parent="1">
          <mxGeometry x="2026.25" y="1800.78" width="133.75" height="17.5" as="geometry" />
        </mxCell>
        <mxCell id="pYFTRabutMhb-Dyx74qj-754" value="&lt;div style=&quot;line-height: 80%;&quot;&gt;&lt;div&gt;&lt;font style=&quot;color: light-dark(rgb(46, 50, 145), rgb(237, 237, 237)); font-size: 8px; line-height: 80%;&quot;&gt;Курсор 1 по оси Y:&lt;br&gt;&lt;/font&gt;&lt;/div&gt;&lt;/div&gt;" style="text;html=1;align=left;verticalAlign=middle;whiteSpace=wrap;rounded=0;" vertex="1" parent="1">
          <mxGeometry x="2025" y="1820" width="80" height="20" as="geometry" />
        </mxCell>
        <mxCell id="pYFTRabutMhb-Dyx74qj-755" value="&lt;font style=&quot;font-size: 8px; color: light-dark(rgb(119, 118, 123), rgb(237, 237, 237));&quot;&gt;хххххххх&lt;/font&gt;" style="rounded=1;whiteSpace=wrap;html=1;strokeColor=light-dark(#3d3846, #ededed);" vertex="1" parent="1">
          <mxGeometry x="2110" y="1823.1299999999999" width="50" height="13.75" as="geometry" />
        </mxCell>
        <mxCell id="pYFTRabutMhb-Dyx74qj-756" value="&lt;div style=&quot;line-height: 80%;&quot;&gt;&lt;div&gt;&lt;font style=&quot;color: light-dark(rgb(46, 50, 145), rgb(237, 237, 237)); font-size: 8px; line-height: 80%;&quot;&gt;Курсор 2 по оси Y:&lt;br&gt;&lt;/font&gt;&lt;/div&gt;&lt;/div&gt;" style="text;html=1;align=left;verticalAlign=middle;whiteSpace=wrap;rounded=0;" vertex="1" parent="1">
          <mxGeometry x="2025" y="1836.88" width="80" height="20" as="geometry" />
        </mxCell>
        <mxCell id="pYFTRabutMhb-Dyx74qj-757" value="&lt;font style=&quot;font-size: 8px; color: light-dark(rgb(119, 118, 123), rgb(237, 237, 237));&quot;&gt;хххххххх&lt;/font&gt;" style="rounded=1;whiteSpace=wrap;html=1;strokeColor=light-dark(#3d3846, #ededed);" vertex="1" parent="1">
          <mxGeometry x="2110" y="1840.01" width="50" height="13.75" as="geometry" />
        </mxCell>
        <mxCell id="pYFTRabutMhb-Dyx74qj-758" value="&lt;div align=&quot;right&quot; style=&quot;line-height: 80%;&quot;&gt;&lt;div&gt;&lt;font style=&quot;color: light-dark(rgb(46, 50, 145), rgb(237, 237, 237)); font-size: 8px; line-height: 80%;&quot;&gt;Дельта Y:&lt;br&gt;&lt;/font&gt;&lt;/div&gt;&lt;/div&gt;" style="text;html=1;align=left;verticalAlign=middle;whiteSpace=wrap;rounded=0;" vertex="1" parent="1">
          <mxGeometry x="2057.5" y="1853.76" width="45" height="20" as="geometry" />
        </mxCell>
        <mxCell id="pYFTRabutMhb-Dyx74qj-759" value="&lt;font style=&quot;font-size: 8px; color: light-dark(rgb(119, 118, 123), rgb(237, 237, 237));&quot;&gt;хххххххх&lt;/font&gt;" style="rounded=1;whiteSpace=wrap;html=1;strokeColor=light-dark(#3d3846, #ededed);" vertex="1" parent="1">
          <mxGeometry x="2110" y="1856.89" width="50" height="13.75" as="geometry" />
        </mxCell>
        <mxCell id="pYFTRabutMhb-Dyx74qj-760" value="" style="rounded=0;whiteSpace=wrap;html=1;strokeColor=light-dark(#77767b, #ededed);" vertex="1" parent="1">
          <mxGeometry x="2180" y="1665" width="240" height="215" as="geometry" />
        </mxCell>
        <mxCell id="pYFTRabutMhb-Dyx74qj-761" value="&lt;font style=&quot;color: light-dark(rgb(46, 50, 145), rgb(237, 237, 237)); font-size: 8px;&quot;&gt;&lt;strong&gt;График&lt;br&gt;&lt;/strong&gt;&lt;/font&gt;" style="text;html=1;align=center;verticalAlign=middle;whiteSpace=wrap;rounded=0;" vertex="1" parent="1">
          <mxGeometry x="2180" y="1665" width="50" height="15" as="geometry" />
        </mxCell>
        <mxCell id="pYFTRabutMhb-Dyx74qj-762" value="" style="rounded=0;whiteSpace=wrap;html=1;" vertex="1" parent="1">
          <mxGeometry x="2190" y="1685" width="220" height="185" as="geometry" />
        </mxCell>
        <mxCell id="pYFTRabutMhb-Dyx74qj-763" value="" style="endArrow=none;html=1;rounded=0;entryX=0;entryY=0;entryDx=0;entryDy=0;exitX=1;exitY=1;exitDx=0;exitDy=0;" edge="1" parent="1" source="pYFTRabutMhb-Dyx74qj-762" target="pYFTRabutMhb-Dyx74qj-762">
          <mxGeometry width="50" height="50" relative="1" as="geometry">
            <mxPoint x="2240" y="1780" as="sourcePoint" />
            <mxPoint x="2290" y="1730" as="targetPoint" />
          </mxGeometry>
        </mxCell>
        <mxCell id="pYFTRabutMhb-Dyx74qj-764" value="" style="endArrow=none;html=1;rounded=0;entryX=1;entryY=0;entryDx=0;entryDy=0;exitX=0;exitY=1;exitDx=0;exitDy=0;" edge="1" parent="1" source="pYFTRabutMhb-Dyx74qj-762" target="pYFTRabutMhb-Dyx74qj-762">
          <mxGeometry width="50" height="50" relative="1" as="geometry">
            <mxPoint x="2300" y="1780" as="sourcePoint" />
            <mxPoint x="2350" y="1730" as="targetPoint" />
          </mxGeometry>
        </mxCell>
        <mxCell id="pYFTRabutMhb-Dyx74qj-765" value="" style="rounded=0;whiteSpace=wrap;html=1;align=center;" vertex="1" parent="1">
          <mxGeometry x="1040" y="1700" width="240" height="20" as="geometry" />
        </mxCell>
        <mxCell id="pYFTRabutMhb-Dyx74qj-766" value="" style="triangle;whiteSpace=wrap;html=1;rotation=90;" vertex="1" parent="1">
          <mxGeometry x="1050" y="1704.68" width="10.62" height="10.63" as="geometry" />
        </mxCell>
        <mxCell id="pYFTRabutMhb-Dyx74qj-767" value="&lt;div&gt;&lt;font&gt;Сигналы в частотной области&lt;font&gt;&lt;br&gt;&lt;/font&gt;&lt;/font&gt;&lt;/div&gt;" style="text;html=1;align=left;verticalAlign=middle;whiteSpace=wrap;rounded=0;fontStyle=1" vertex="1" parent="1">
          <mxGeometry x="1070" y="1700" width="210" height="20" as="geometry" />
        </mxCell>
        <mxCell id="pYFTRabutMhb-Dyx74qj-772" value="" style="rounded=0;whiteSpace=wrap;html=1;" vertex="1" parent="1">
          <mxGeometry x="1760" y="1730" width="240" height="229.69" as="geometry" />
        </mxCell>
        <mxCell id="pYFTRabutMhb-Dyx74qj-787" value="" style="group" vertex="1" connectable="0" parent="1">
          <mxGeometry x="1760" y="1640" width="240" height="35.309999999999945" as="geometry" />
        </mxCell>
        <mxCell id="pYFTRabutMhb-Dyx74qj-788" value="" style="rounded=0;whiteSpace=wrap;html=1;align=center;" vertex="1" parent="pYFTRabutMhb-Dyx74qj-787">
          <mxGeometry width="240" height="20" as="geometry" />
        </mxCell>
        <mxCell id="pYFTRabutMhb-Dyx74qj-789" value="" style="triangle;whiteSpace=wrap;html=1;rotation=0;" vertex="1" parent="pYFTRabutMhb-Dyx74qj-787">
          <mxGeometry x="10" y="4.680000000000007" width="10.62" height="10.63" as="geometry" />
        </mxCell>
        <mxCell id="pYFTRabutMhb-Dyx74qj-791" value="" style="group" vertex="1" connectable="0" parent="pYFTRabutMhb-Dyx74qj-787">
          <mxGeometry y="19.999999999999947" width="240" height="20" as="geometry" />
        </mxCell>
        <mxCell id="pYFTRabutMhb-Dyx74qj-792" value="" style="rounded=0;whiteSpace=wrap;html=1;align=center;" vertex="1" parent="pYFTRabutMhb-Dyx74qj-791">
          <mxGeometry width="240" height="20" as="geometry" />
        </mxCell>
        <mxCell id="pYFTRabutMhb-Dyx74qj-793" value="" style="triangle;whiteSpace=wrap;html=1;rotation=0;" vertex="1" parent="pYFTRabutMhb-Dyx74qj-791">
          <mxGeometry x="10" y="4.680000000000007" width="10.62" height="10.63" as="geometry" />
        </mxCell>
        <mxCell id="pYFTRabutMhb-Dyx74qj-794" value="&lt;font&gt;Менеджер локаторов&lt;/font&gt;" style="text;html=1;align=left;verticalAlign=middle;whiteSpace=wrap;rounded=0;fontStyle=1" vertex="1" parent="pYFTRabutMhb-Dyx74qj-791">
          <mxGeometry x="30" width="210" height="20" as="geometry" />
        </mxCell>
        <mxCell id="pYFTRabutMhb-Dyx74qj-790" value="&lt;div&gt;&lt;font&gt;Менеджер устройств&lt;/font&gt;&lt;/div&gt;" style="text;html=1;align=left;verticalAlign=middle;whiteSpace=wrap;rounded=0;fontStyle=1" vertex="1" parent="pYFTRabutMhb-Dyx74qj-787">
          <mxGeometry x="30" width="210" height="20" as="geometry" />
        </mxCell>
        <mxCell id="pYFTRabutMhb-Dyx74qj-795" value="" style="group" vertex="1" connectable="0" parent="1">
          <mxGeometry x="1760" y="1678.75" width="240" height="20" as="geometry" />
        </mxCell>
        <mxCell id="pYFTRabutMhb-Dyx74qj-796" value="" style="rounded=0;whiteSpace=wrap;html=1;align=center;" vertex="1" parent="pYFTRabutMhb-Dyx74qj-795">
          <mxGeometry width="240" height="20" as="geometry" />
        </mxCell>
        <mxCell id="pYFTRabutMhb-Dyx74qj-797" value="" style="triangle;whiteSpace=wrap;html=1;rotation=0;" vertex="1" parent="pYFTRabutMhb-Dyx74qj-795">
          <mxGeometry x="10" y="4.680000000000007" width="10.62" height="10.63" as="geometry" />
        </mxCell>
        <mxCell id="pYFTRabutMhb-Dyx74qj-798" value="&lt;font&gt;Сигналы во временной области&lt;/font&gt;" style="text;html=1;align=left;verticalAlign=middle;whiteSpace=wrap;rounded=0;fontStyle=1" vertex="1" parent="pYFTRabutMhb-Dyx74qj-795">
          <mxGeometry x="30" width="210" height="20" as="geometry" />
        </mxCell>
        <mxCell id="pYFTRabutMhb-Dyx74qj-799" value="&amp;nbsp;" style="rounded=0;whiteSpace=wrap;html=1;fontColor=light-dark(#1c531e, #ededed);fillColor=light-dark(#009900, #ededed);" vertex="1" parent="1">
          <mxGeometry x="1760" y="1719.0599999999995" width="240" height="20" as="geometry" />
        </mxCell>
        <mxCell id="pYFTRabutMhb-Dyx74qj-800" value="&lt;span style=&quot;color: light-dark(rgb(255, 255, 255), rgb(237, 237, 237));&quot;&gt;Теоритический излучаемый сигнал&lt;/span&gt;" style="text;html=1;align=left;verticalAlign=middle;whiteSpace=wrap;rounded=0;" vertex="1" parent="1">
          <mxGeometry x="1790" y="1719.69" width="210" height="20" as="geometry" />
        </mxCell>
        <mxCell id="pYFTRabutMhb-Dyx74qj-801" value="" style="rounded=0;whiteSpace=wrap;html=1;align=center;" vertex="1" parent="1">
          <mxGeometry x="1760" y="1699.06" width="240" height="20" as="geometry" />
        </mxCell>
        <mxCell id="pYFTRabutMhb-Dyx74qj-802" value="" style="triangle;whiteSpace=wrap;html=1;rotation=90;" vertex="1" parent="1">
          <mxGeometry x="1770" y="1702.5000000000002" width="10.62" height="10.63" as="geometry" />
        </mxCell>
        <mxCell id="pYFTRabutMhb-Dyx74qj-803" value="&lt;div&gt;&lt;font&gt;Сигналы в частотной области&lt;font&gt;&lt;br&gt;&lt;/font&gt;&lt;/font&gt;&lt;/div&gt;" style="text;html=1;align=left;verticalAlign=middle;whiteSpace=wrap;rounded=0;fontStyle=1" vertex="1" parent="1">
          <mxGeometry x="1790" y="1699.99" width="210" height="20" as="geometry" />
        </mxCell>
      </root>
    </mxGraphModel>
  </diagram>
</mxfile>
